<svg width="52" height="58" viewBox="0 0 52 58" fill="none" xmlns="http://www.w3.org/2000/svg">
<path d="M10.2327 57.8753C8.19064 57.0063 9.30292 54.4255 8.99878 52.7049C8.9814 52.2878 9.09437 52.1922 9.51147 52.1922C19.9304 52.2096 30.3493 52.2096 40.7683 52.1922C43.827 52.2443 46.0951 49.7156 45.9473 46.7698C45.9473 34.6825 45.9473 22.5951 45.9299 10.5078C45.9299 10.0125 46.0429 9.89081 46.5295 9.90819C47.5462 9.95164 48.5716 9.91688 49.5883 9.91688C50.8657 9.91688 51.5 10.5512 51.5087 11.8112C51.5087 21.0484 51.5087 30.2768 51.5087 39.514C51.5087 44.9276 51.4913 50.3413 51.5261 55.755C51.5261 56.763 51.2133 57.4582 50.2835 57.8666H10.2327V57.8753Z" fill="#F0F0F0"/>
<path d="M16.1421 19.0498C16.1421 18.6848 16.0552 18.5892 15.6902 18.5979C14.1348 18.6153 12.5706 18.6153 11.0152 18.5979C10.6502 18.5892 10.5633 18.6848 10.5633 19.0498C10.5633 22.9775 10.5633 26.9053 10.5633 30.8417C10.5633 31.198 10.6502 31.3022 11.0152 31.2935C12.5706 31.2762 14.1261 31.2762 15.6902 31.2935C16.0465 31.3022 16.1421 31.2066 16.1421 30.8417C16.1247 26.9139 16.1247 22.9688 16.1421 19.0498V19.0498ZM16.1421 19.0498C16.1421 18.6848 16.0552 18.5892 15.6902 18.5979C14.1348 18.6153 12.5706 18.6153 11.0152 18.5979C10.6502 18.5892 10.5633 18.6848 10.5633 19.0498C10.5633 22.9775 10.5633 26.9053 10.5633 30.8417C10.5633 31.198 10.6502 31.3022 11.0152 31.2935C12.5706 31.2762 14.1261 31.2762 15.6902 31.2935C16.0465 31.3022 16.1421 31.2066 16.1421 30.8417C16.1247 26.9139 16.1247 22.9688 16.1421 19.0498V19.0498ZM16.1421 19.0498C16.1421 18.6848 16.0552 18.5892 15.6902 18.5979C14.1348 18.6153 12.5706 18.6153 11.0152 18.5979C10.6502 18.5892 10.5633 18.6848 10.5633 19.0498C10.5633 22.9775 10.5633 26.9053 10.5633 30.8417C10.5633 31.198 10.6502 31.3022 11.0152 31.2935C12.5706 31.2762 14.1261 31.2762 15.6902 31.2935C16.0465 31.3022 16.1421 31.2066 16.1421 30.8417C16.1247 26.9139 16.1247 22.9688 16.1421 19.0498V19.0498ZM16.1421 19.0498C16.1421 18.6848 16.0552 18.5892 15.6902 18.5979C14.1348 18.6153 12.5706 18.6153 11.0152 18.5979C10.6502 18.5892 10.5633 18.6848 10.5633 19.0498C10.5633 22.9775 10.5633 26.9053 10.5633 30.8417C10.5633 31.198 10.6502 31.3022 11.0152 31.2935C12.5706 31.2762 14.1261 31.2762 15.6902 31.2935C16.0465 31.3022 16.1421 31.2066 16.1421 30.8417C16.1247 26.9139 16.1247 22.9688 16.1421 19.0498V19.0498ZM40.6904 0.914398H2.03003C0.735264 0.914398 0.109606 1.54006 0.109606 2.86089V24.8284C0.109606 32.1712 0.135675 39.514 0.0922271 46.8568C0.0835374 48.1689 0.961196 48.8815 2.09085 48.8815C14.9342 48.8554 27.7863 48.8641 40.6296 48.8641C41.9852 48.8641 42.6109 48.2558 42.6109 46.9176V2.86089C42.6109 1.54006 41.9852 0.914398 40.6904 0.914398ZM9.01654 8.14422C11.8146 8.14422 30.4019 8.14422 33.591 8.14422C35.9198 8.05732 36.137 11.2464 33.869 11.4811C33.7648 11.4811 33.6518 11.4811 33.5388 11.4811H9.18164C6.70508 11.594 6.58342 8.21374 9.01654 8.14422V8.14422ZM7.23515 17.2163C7.23515 15.9389 7.89557 15.2698 9.18164 15.2698C11.9623 15.2611 14.7343 15.2611 17.515 15.2698C18.8011 15.2698 19.4702 15.9302 19.4702 17.2163V32.6665C19.4702 33.9526 18.8011 34.6217 17.5237 34.6217H9.18164C7.90426 34.6217 7.23515 33.9526 7.23515 32.6752V17.2163V17.2163ZM33.869 41.7385C25.6399 41.7385 17.4195 41.7385 9.18164 41.7385C8.26053 41.7385 7.62618 41.3649 7.3568 40.6697C6.93101 39.5487 7.74784 38.4191 9.01654 38.4104C10.5199 38.393 12.0232 38.4104 13.5178 38.4104H21.3559C25.44 38.4104 29.5155 38.4104 33.591 38.4104C34.4686 38.4104 35.103 38.8014 35.3637 39.4792C35.7634 40.5394 35.0335 41.643 33.869 41.7385ZM33.591 34.6217H25.1446C22.642 34.6391 22.6333 31.2675 25.1446 31.2849H33.591C36.1023 31.2588 36.0936 34.6478 33.591 34.6217V34.6217ZM33.591 26.6098C30.7755 26.6185 27.9601 26.6185 25.1446 26.6098C22.642 26.6359 22.6333 23.273 25.1446 23.273H33.591C36.0936 23.2643 36.1023 26.6272 33.591 26.6098ZM33.591 19.4929H25.1446C22.642 19.5103 22.6333 16.1387 25.1446 16.1561H33.591C36.0936 16.1387 36.1023 19.5103 33.591 19.4929ZM11.0152 31.2935C12.5706 31.2762 14.1261 31.2762 15.6902 31.2935C16.0465 31.3022 16.1421 31.2066 16.1421 30.8417C16.1247 26.9139 16.1247 22.9688 16.1421 19.0498C16.1421 18.6848 16.0552 18.5892 15.6902 18.5979C14.1348 18.6153 12.5706 18.6153 11.0152 18.5979C10.6502 18.5892 10.5633 18.6848 10.5633 19.0498C10.5633 22.9775 10.5633 26.9053 10.5633 30.8417C10.5633 31.198 10.6502 31.3022 11.0152 31.2935ZM16.1421 19.0498C16.1421 18.6848 16.0552 18.5892 15.6902 18.5979C14.1348 18.6153 12.5706 18.6153 11.0152 18.5979C10.6502 18.5892 10.5633 18.6848 10.5633 19.0498C10.5633 22.9775 10.5633 26.9053 10.5633 30.8417C10.5633 31.198 10.6502 31.3022 11.0152 31.2935C12.5706 31.2762 14.1261 31.2762 15.6902 31.2935C16.0465 31.3022 16.1421 31.2066 16.1421 30.8417C16.1247 26.9139 16.1247 22.9688 16.1421 19.0498V19.0498ZM16.1421 19.0498C16.1421 18.6848 16.0552 18.5892 15.6902 18.5979C14.1348 18.6153 12.5706 18.6153 11.0152 18.5979C10.6502 18.5892 10.5633 18.6848 10.5633 19.0498C10.5633 22.9775 10.5633 26.9053 10.5633 30.8417C10.5633 31.198 10.6502 31.3022 11.0152 31.2935C12.5706 31.2762 14.1261 31.2762 15.6902 31.2935C16.0465 31.3022 16.1421 31.2066 16.1421 30.8417C16.1247 26.9139 16.1247 22.9688 16.1421 19.0498V19.0498ZM16.1421 19.0498C16.1421 18.6848 16.0552 18.5892 15.6902 18.5979C14.1348 18.6153 12.5706 18.6153 11.0152 18.5979C10.6502 18.5892 10.5633 18.6848 10.5633 19.0498C10.5633 22.9775 10.5633 26.9053 10.5633 30.8417C10.5633 31.198 10.6502 31.3022 11.0152 31.2935C12.5706 31.2762 14.1261 31.2762 15.6902 31.2935C16.0465 31.3022 16.1421 31.2066 16.1421 30.8417C16.1247 26.9139 16.1247 22.9688 16.1421 19.0498V19.0498ZM16.1421 19.0498C16.1421 18.6848 16.0552 18.5892 15.6902 18.5979C14.1348 18.6153 12.5706 18.6153 11.0152 18.5979C10.6502 18.5892 10.5633 18.6848 10.5633 19.0498C10.5633 22.9775 10.5633 26.9053 10.5633 30.8417C10.5633 31.198 10.6502 31.3022 11.0152 31.2935C12.5706 31.2762 14.1261 31.2762 15.6902 31.2935C16.0465 31.3022 16.1421 31.2066 16.1421 30.8417C16.1247 26.9139 16.1247 22.9688 16.1421 19.0498V19.0498Z" fill="#F0F0F0"/>
<path d="M16.1332 25.0021C16.1332 26.9486 16.1245 28.8951 16.1419 30.8416C16.1419 31.2066 16.0463 31.3022 15.69 31.2935C14.1259 31.2761 12.5704 31.2761 11.015 31.2935C10.65 31.3022 10.5631 31.1979 10.5631 30.8416C10.5631 26.9052 10.5631 22.9774 10.5631 19.0497C10.5631 18.6847 10.65 18.5891 11.015 18.5978C12.5704 18.6152 14.1346 18.6152 15.69 18.5978C16.055 18.5891 16.1419 18.6847 16.1419 19.0497C16.1245 21.0309 16.1332 23.0122 16.1332 25.0021Z" fill="#F0F0F0"/>
<path d="M16.1332 25.0021C16.1332 26.9486 16.1245 28.8951 16.1419 30.8416C16.1419 31.2066 16.0463 31.3022 15.69 31.2935C14.1259 31.2761 12.5704 31.2761 11.015 31.2935C10.65 31.3022 10.5631 31.1979 10.5631 30.8416C10.5631 26.9052 10.5631 22.9774 10.5631 19.0497C10.5631 18.6847 10.65 18.5891 11.015 18.5978C12.5704 18.6152 14.1346 18.6152 15.69 18.5978C16.055 18.5891 16.1419 18.6847 16.1419 19.0497C16.1245 21.0309 16.1332 23.0122 16.1332 25.0021Z" fill="#F0F0F0"/>
</svg>
