<svg width="58" height="58" viewBox="0 0 58 58" fill="none" xmlns="http://www.w3.org/2000/svg">
<path d="M29.3238 0.914465C13.4245 0.943797 0.718464 13.8625 0.852212 29.6934C2.72468 67.5359 56.4495 67.0917 57.8121 29.421C57.7744 13.5231 44.9723 0.880942 29.3238 0.914465ZM29.3614 13.611C31.0876 13.6236 32.4585 15.0232 32.471 16.7831C32.354 20.9399 26.3646 20.9524 26.2141 16.804C26.2058 15.0274 27.6143 13.5985 29.3614 13.611ZM32.4752 42.0254C32.517 46.0229 26.8703 46.4965 26.2476 42.6121C26.1347 38.4301 26.2225 34.2315 26.2141 30.0454C26.2141 29.618 26.1097 29.4671 25.675 29.3833C21.8172 28.6332 22.3271 23.1775 26.2768 23.1398C27.2674 23.1314 28.2538 23.1314 29.2402 23.1398C31.1336 23.1481 32.4543 24.4388 32.471 26.3579C32.4961 31.5832 32.4836 36.8001 32.4752 42.0254V42.0254Z" fill="#F0F0F0"/>
</svg>
