<svg width="43" height="37" viewBox="0 0 43 37" fill="none" xmlns="http://www.w3.org/2000/svg">
<path d="M7.19131 35.1948C6.9304 36.3522 5.65365 36.2023 4.6933 36.194C4.52052 36.199 4.34854 36.1686 4.18797 36.1046C4.02739 36.0406 3.88163 35.9444 3.75966 35.8219C3.6377 35.6994 3.54211 35.5532 3.4788 35.3924C3.4155 35.2315 3.38581 35.0594 3.39157 34.8867C3.38305 34.0219 3.54844 33.1642 3.87791 32.3646C4.20738 31.565 4.69421 30.8398 5.30948 30.2321C6.71946 28.8091 8.13685 27.3908 9.56163 25.9771C9.59644 25.9565 9.62591 25.928 9.64768 25.8939C9.66945 25.8599 9.6829 25.8211 9.68695 25.7809C9.691 25.7406 9.68554 25.7 9.671 25.6623C9.65647 25.6245 9.63326 25.5907 9.60326 25.5636C9.46726 25.3804 9.37012 25.5636 9.28685 25.6357C7.37727 26.9292 5.47601 28.2364 3.5692 29.5354C2.52837 30.3681 1.02679 29.2329 1.57635 28.0727C2.61441 25.9522 3.60806 23.7955 4.74881 21.7361C6.07071 22.923 7.69168 23.7262 9.43673 24.0592C9.47836 25.6108 10.0696 27.0402 10.8051 28.3419C9.56441 29.5937 8.30708 30.8399 7.06918 32.0889C6.70864 32.4627 6.42565 32.9042 6.23651 33.3879C6.17268 33.5433 6.14492 33.6238 6.34476 33.7126C7.022 34.0096 7.32453 34.5647 7.19131 35.1948Z" fill="#85C226"/>
<path d="M19.323 35.2613C19.323 36.0023 18.7457 36.4603 17.9352 36.5325C17.4948 36.593 17.0461 36.536 16.6348 36.3674C16.2234 36.1988 15.8639 35.9244 15.5927 35.5721C15.0764 34.9532 14.4491 34.423 13.8885 33.8429C12.9892 32.9387 12.437 31.7468 12.3286 30.4762C12.633 30.6863 12.9851 30.817 13.3528 30.8564C14.4455 30.9828 15.5491 30.9828 16.6418 30.8564C16.3809 31.2089 16.1256 31.5614 15.8536 31.9056C15.7453 32.0444 15.7814 32.1221 15.8952 32.2359C16.4253 32.7549 16.9582 33.2767 17.4745 33.8124C17.535 33.8715 17.6083 33.916 17.6886 33.9424C17.7689 33.9689 17.8542 33.9766 17.938 33.9651C18.7846 33.9678 19.3341 34.4841 19.323 35.2613Z" fill="#85C226"/>
<path d="M42.2889 21.2031V21.8443C41.8012 22.9554 40.8972 23.831 39.7711 24.283C38.645 24.735 37.3865 24.7274 36.2659 24.2618C36.1712 24.2213 36.0692 24.2004 35.9662 24.2004C35.8631 24.2004 35.7612 24.2213 35.6664 24.2618C34.7782 24.6365 33.8817 24.9945 32.9824 25.3442C32.8942 25.3654 32.817 25.4186 32.7657 25.4935C32.7144 25.5683 32.6928 25.6595 32.7049 25.7495C32.7049 27.4759 32.7049 29.205 32.7049 30.9342C32.6918 31.0787 32.7323 31.2229 32.8187 31.3394C33.5126 32.2304 34.3341 33.0048 35.0946 33.8374C35.1363 33.8791 35.1871 33.9103 35.243 33.9286C35.299 33.947 35.3584 33.9519 35.4166 33.9429C35.6942 33.9429 35.9717 33.9429 36.2493 33.9429C37.9146 34.0095 37.8896 36.4409 36.2354 36.4964C35.6803 36.4964 35.1446 36.4964 34.6006 36.4964C34.4542 36.5032 34.3079 36.4798 34.1709 36.4278C34.0339 36.3757 33.909 36.2961 33.804 36.1939C31.4226 33.8402 29.2965 31.5421 28.5304 28.1587C27.201 29.4465 25.7854 30.5429 24.3699 31.7086C24.2637 31.7757 24.176 31.8682 24.1144 31.9777C24.0529 32.0872 24.0195 32.2103 24.0174 32.3359C24.0165 32.5238 23.9894 32.7106 23.9369 32.891C23.8037 33.3601 23.8509 33.6487 24.4143 33.8319C24.9777 34.0151 25.1831 34.6923 25.0416 35.2363C24.9689 35.5072 24.8108 35.7475 24.5909 35.9215C24.3709 36.0954 24.1007 36.1939 23.8203 36.2022C23.3957 36.2022 22.9682 36.2022 22.5463 36.2022C22.3736 36.2076 22.2015 36.1776 22.0408 36.1139C21.8801 36.0503 21.7341 35.9544 21.6119 35.8321C21.4897 35.7099 21.3938 35.5639 21.3301 35.4032C21.2665 35.2425 21.2364 35.0705 21.2418 34.8977C21.2432 32.7327 21.6188 30.5843 22.3521 28.5472H21.8747C23.1514 27.3232 23.7759 25.7106 23.701 23.7983C23.6538 22.3661 22.6574 21.5584 21.3168 21.4196C25.1526 21.142 28.7886 18.2749 31.0312 14.8276C32.505 14.5334 33.9234 14.0949 34.6977 12.7071C35.2528 11.7301 36.6712 11.6441 37.1957 12.8986C37.4428 13.4954 37.7675 14.0588 38.0478 14.6445C38.2761 15.1775 38.5913 15.669 38.9804 16.0989C39.4693 16.6164 39.7405 17.3021 39.7381 18.014C39.7394 18.1528 39.7685 18.2899 39.8239 18.4172C39.8792 18.5445 39.9595 18.6594 40.0601 18.7551C40.593 19.2741 41.1065 19.8098 41.645 20.326C41.9135 20.5747 42.1321 20.8724 42.2889 21.2031Z" fill="#85C226"/>
<path d="M18.7402 7.7833C18.7334 7.8172 18.7156 7.84789 18.6894 7.87051C18.6633 7.89313 18.6303 7.90639 18.5958 7.9082C16.5225 8.29677 14.4491 8.74086 12.3286 8.70478C12.2099 8.71708 12.0905 8.68897 11.9898 8.625C11.8891 8.56103 11.8129 8.46494 11.7735 8.35229C11.5948 7.97066 11.3937 7.59994 11.1712 7.24206C11.1335 7.1936 11.1153 7.1327 11.1205 7.07149C11.1256 7.01027 11.1537 6.95325 11.199 6.91177C12.9337 4.74128 14.6573 2.55969 16.3893 0.389208C16.4902 0.249739 16.6275 0.140644 16.7862 0.0738022C16.9448 0.00696055 17.1188 -0.0150646 17.2891 0.0101254C17.4594 0.0353155 17.6196 0.106755 17.7521 0.216664C17.8846 0.326572 17.9845 0.470737 18.0407 0.633457C19.0039 2.88802 19.2481 5.38481 18.7402 7.7833Z" fill="#85C226"/>
<path d="M32.9209 8.28569C30.0704 15.4244 24.6359 22.441 16.1343 19.3574C17.0697 21.1532 19.515 22.5382 21.48 22.8463C21.7211 22.8729 21.9424 22.9919 22.0977 23.1782C22.2529 23.3644 22.33 23.6036 22.3127 23.8455C22.4043 26.0437 21.369 27.5592 19.515 28.5362C18.1321 29.243 16.5963 29.5977 15.0435 29.5687C14.5252 29.5675 14.0073 29.5387 13.492 29.4826C13.3745 29.4701 13.261 29.4326 13.159 29.3728C13.0571 29.313 12.9691 29.2322 12.9008 29.1357C11.7406 27.3732 10.5166 25.3082 10.8608 23.11C10.8968 22.924 10.8441 22.9101 10.6859 22.8851C8.79574 22.6215 6.88894 21.9387 5.51504 20.5509C3.26961 18.3304 4.89609 14.9692 4.75731 12.2409C4.75731 10.5061 3.59712 9.38481 1.87628 9.29877C0.885403 9.27102 0.0582867 9.44865 0 8.183L0.216494 7.70005C4.10228 2.60135 7.87703 4.16399 10.4167 9.86499C11.105 11.8245 20.628 9.30988 21.0054 9.30988C24.5692 8.5688 28.1192 7.75556 31.7246 7.22821C32.4574 7.08943 33.0291 7.73613 32.9209 8.28569Z" fill="#85C226"/>
</svg>
