<svg width="44" height="36" viewBox="0 0 44 36" fill="none" xmlns="http://www.w3.org/2000/svg">
<path d="M18.8669 29.871C18.5687 30.5419 18.2673 31.2097 17.9691 31.8774C17.0647 33.9617 13.8589 33.5176 13.6158 31.1384C13.3403 29.1189 13.0388 27.0995 12.7438 25.0801C12.679 24.636 12.4813 24.4772 12.0307 24.4675C11.2722 24.448 10.5137 24.5258 9.76171 24.3378C8.90123 24.1177 8.14599 23.601 7.62896 22.8788C7.11193 22.1567 6.86624 21.2752 6.93516 20.3897C7.00791 19.4784 7.41359 18.6258 8.07481 17.9944C8.73602 17.3631 9.60651 16.9973 10.5202 16.9667C11.4926 16.9376 12.4651 16.9667 13.4375 16.9667C16.1474 17.0251 17.3597 16.5583 18.7308 18.286L21.3434 15.6928H19.9853C19.2135 15.6701 18.4788 15.357 17.9278 14.8162C17.3768 14.2754 17.05 13.5467 17.0128 12.7755C16.9837 11.9457 16.9837 11.1094 17.0128 10.2764C17.0438 9.5731 17.3373 8.90698 17.8354 8.40951C18.3335 7.91204 18.9999 7.61935 19.7032 7.58921C20.5849 7.56004 21.4698 7.58921 22.3515 7.58921C22.9117 7.55902 23.4683 7.69447 23.952 7.97867C24.4356 8.26286 24.8248 8.68321 25.0711 9.18725C25.2244 9.4578 25.4498 9.68046 25.7223 9.83041C25.9947 9.98036 26.3034 10.0517 26.614 10.0365H26.9382C27.8296 9.06407 28.9349 8.17267 30.2185 8.10784H31.1456C31.5743 8.12474 31.9967 8.21691 32.3935 8.38012C32.4746 8.31854 32.4908 8.25371 32.3935 8.12081C31.8623 7.30433 31.2695 6.52954 30.6205 5.80317C30.1027 6.38885 29.3893 6.76587 28.6138 6.86371C27.8382 6.96155 27.0536 6.77351 26.4066 6.33477C24.708 5.26185 22.6335 5.74158 20.7373 5.63461C20.4048 5.64407 20.074 5.58446 19.7657 5.45956C19.4574 5.33466 19.1784 5.14718 18.9463 4.90896C18.7142 4.67074 18.534 4.38697 18.4171 4.07557C18.3002 3.76417 18.2492 3.43191 18.2673 3.0998C18.3775 1.20354 19.9755 0.872917 21.5444 0.506632C19.0165 -0.133041 16.3734 -0.167468 13.8297 0.406147C14.2771 0.655739 14.6563 0.866434 15.0323 1.08361C15.6086 1.38681 16.0423 1.90481 16.2395 2.52544C16.4367 3.14608 16.3814 3.8194 16.0858 4.39962C15.4537 5.6962 14.7892 6.99278 14.1409 8.28936C13.9846 8.61035 13.7575 8.89172 13.4768 9.11236C13.1961 9.333 12.869 9.48715 12.5202 9.56325C11.4375 9.81285 10.3549 10.0495 9.27873 10.2958C8.96021 10.341 8.67068 10.5052 8.46854 10.7555C8.26641 11.0058 8.16672 11.3234 8.1896 11.6443C8.12801 12.688 8.32574 13.7739 8.06643 14.7917C7.54131 16.5713 4.82497 16.7982 4.06971 15.0932C3.23018 13.4724 2.47492 11.8971 1.63214 10.231C-4.4391 24.2665 7.50889 36.4706 19.6741 35.0638C18.5331 33.5144 18.9285 31.6376 18.8669 29.871Z" fill="#85C226"/>
<path d="M23.9113 9.62155C23.4575 8.6167 22.1349 8.75609 21.276 8.75609C20.7768 8.75609 20.3716 8.75609 19.9794 8.75609C17.8562 8.83712 18.229 10.8209 18.216 12.3444C18.2873 14.9926 20.7152 14.3541 22.5758 14.4286L25.8172 11.1872C25.4033 11.084 25.0175 10.8899 24.6878 10.6191C24.3582 10.3483 24.0929 10.0076 23.9113 9.62155Z" fill="#85C226"/>
<path d="M5.13579 14.474C5.21992 14.6818 5.38002 14.8497 5.58354 14.9437C5.78706 15.0376 6.01872 15.0505 6.2314 14.9797C6.44295 14.9332 6.63021 14.811 6.75796 14.6361C6.88571 14.4612 6.94514 14.2456 6.92507 14.03C6.92507 13.2099 6.92507 12.3898 6.92507 11.5665C6.92058 10.9929 7.11325 10.4352 7.47084 9.98673C7.82843 9.53827 8.32923 9.22626 8.88939 9.10295C9.94611 8.8566 11.0061 8.61349 12.066 8.38983C12.2946 8.34645 12.5093 8.24829 12.6916 8.10377C12.874 7.95924 13.0186 7.77266 13.113 7.56002C13.7062 6.35419 14.3156 5.1581 14.9153 3.95552C15.0293 3.77115 15.092 3.55963 15.0968 3.34288C15.1126 3.10084 15.0576 2.85941 14.9385 2.64814C14.8193 2.43686 14.6412 2.2649 14.4258 2.15327C13.7159 1.74809 12.9996 1.35587 12.3059 0.960415C12.2497 0.926715 12.1864 0.906797 12.121 0.902289C12.0556 0.897782 11.9901 0.908814 11.9299 0.934483C7.94936 2.29062 4.58521 5.02585 2.44538 8.6459C2.40339 8.71055 2.38104 8.78599 2.38104 8.86308C2.38104 8.94017 2.40339 9.01561 2.44538 9.08026C3.34003 10.876 4.23143 12.6783 5.13579 14.474Z" fill="#85C226"/>
<path d="M19.519 3.37209C19.53 3.51951 19.5703 3.66323 19.6378 3.79476C19.7052 3.9263 19.7984 4.04296 19.9117 4.13786C20.0251 4.23276 20.1563 4.30396 20.2976 4.34725C20.439 4.39055 20.5875 4.40505 20.7346 4.38991C22.861 4.46446 25.1332 4.04956 27.0295 5.25538C27.3806 5.50639 27.8005 5.64332 28.2321 5.64759C28.7096 5.65849 29.1732 5.48692 29.5286 5.16786C29.7458 4.98634 29.7458 4.8664 29.5286 4.66543C27.9353 3.19727 26.0878 2.03183 24.0765 1.22625C23.9557 1.16733 23.8182 1.15243 23.6875 1.18411C22.5984 1.48881 21.5028 1.78378 20.4104 2.09496C20.125 2.15019 19.8723 2.31443 19.7059 2.55284C19.5395 2.79126 19.4724 3.08511 19.519 3.37209Z" fill="#85C226"/>
<path d="M16.2536 21.9878C16.4075 20.885 16.964 19.8782 17.8159 19.1612C17.6274 18.8439 17.3547 18.5851 17.028 18.4134C16.7012 18.2417 16.3333 18.164 15.9651 18.1888C14.2114 18.1888 12.4611 18.1661 10.7074 18.1888C7.53081 18.2925 7.26825 22.7074 10.3282 23.1968C10.8895 23.2488 11.4538 23.2618 12.017 23.2357C12.5109 23.2203 12.9916 23.3966 13.3584 23.7277C13.7252 24.0589 13.9496 24.5191 13.9845 25.0121C14.2568 27.0218 14.555 29.0282 14.85 31.0347C14.854 31.2707 14.9437 31.4971 15.1023 31.6719C15.261 31.8466 15.4777 31.9577 15.7122 31.9844C15.9567 32.027 16.2083 31.9808 16.4216 31.8542C16.635 31.7276 16.7961 31.5289 16.8759 31.294C17.5372 29.8094 18.1974 28.3237 18.8564 26.837V26.6295C18.1313 26.3449 17.5009 25.8621 17.0372 25.2361C16.5735 24.6102 16.2952 23.8665 16.2341 23.0899V22.1174L16.2536 21.9878Z" fill="#85C226"/>
<path d="M43.0992 21.5306C42.9687 21.257 42.7846 21.0123 42.5579 20.811L34.5029 12.7528L32.5969 10.8436C32.2166 10.386 31.6718 10.0962 31.0799 10.0364H30.3441C29.5435 10.111 28.9957 10.7107 28.4705 11.2552C26.9989 12.7301 25.5305 14.1952 24.0622 15.6701C22.6597 17.0726 21.2551 18.4772 19.8483 19.884C19.2518 20.5323 18.2535 21.2551 18.1951 22.1984V23.0023C18.2637 23.55 18.5297 24.054 18.9432 24.4198C19.3567 24.7856 19.8894 24.988 20.4415 24.9893C20.8142 24.9893 20.8142 24.9893 20.8175 25.3718C20.8175 27.7726 20.8175 30.1745 20.8175 32.5775C20.8175 33.8579 22.0168 35.2063 23.375 35.1707C24.4252 35.1707 26.6002 35.1707 27.6796 35.1707C28.2047 35.1707 28.4608 34.6488 28.4187 34.1755V31.3847C28.4187 30.4446 28.4187 29.5079 28.4187 28.5678C28.4043 28.3321 28.465 28.0979 28.5919 27.8987C28.7188 27.6996 28.9056 27.5457 29.1253 27.4593C30.128 27.2669 31.1561 27.2461 32.1658 27.3977C32.7882 27.5273 33.0734 27.9649 33.0766 28.6683V34.1075C33.0215 34.6358 33.2679 35.1739 33.8449 35.1739H38.1366C39.5628 35.1739 40.6941 33.832 40.6746 32.4414V25.3102C40.6746 24.986 40.6746 24.986 40.9988 24.986C42.7297 24.9633 43.835 23.2713 43.0992 21.5306Z" fill="#85C226"/>
</svg>
