<svg width="22" height="21" viewBox="0 0 22 21" fill="none" xmlns="http://www.w3.org/2000/svg">
<path d="M6.52395 0C3.43426 0 0.928711 2.50555 0.928711 5.59524V14.5476C0.928711 17.6373 3.43426 20.1429 6.52395 20.1429H15.4763C18.566 20.1429 21.0716 17.6373 21.0716 14.5476V5.59524C21.0716 2.50555 18.566 0 15.4763 0H6.52395ZM17.7144 2.2381C18.3321 2.2381 18.8335 2.73943 18.8335 3.35714C18.8335 3.97486 18.3321 4.47619 17.7144 4.47619C17.0967 4.47619 16.5954 3.97486 16.5954 3.35714C16.5954 2.73943 17.0967 2.2381 17.7144 2.2381ZM11.0001 4.47619C14.0898 4.47619 16.5954 6.98174 16.5954 10.0714C16.5954 13.1611 14.0898 15.6667 11.0001 15.6667C7.91045 15.6667 5.4049 13.1611 5.4049 10.0714C5.4049 6.98174 7.91045 4.47619 11.0001 4.47619ZM11.0001 6.71429C10.1098 6.71429 9.25587 7.06798 8.62628 7.69757C7.99669 8.32716 7.643 9.18106 7.643 10.0714C7.643 10.9618 7.99669 11.8157 8.62628 12.4453C9.25587 13.0749 10.1098 13.4286 11.0001 13.4286C11.8905 13.4286 12.7444 13.0749 13.374 12.4453C14.0036 11.8157 14.3573 10.9618 14.3573 10.0714C14.3573 9.18106 14.0036 8.32716 13.374 7.69757C12.7444 7.06798 11.8905 6.71429 11.0001 6.71429Z" fill="white"/>
</svg>
