<svg width="44" height="40" viewBox="0 0 44 40" fill="none" xmlns="http://www.w3.org/2000/svg">
<path d="M43.685 29.1624C42.6376 31.4836 41.256 33.6203 40.0067 35.8301C39.4986 36.7314 38.639 37.1734 37.5985 37.1838C34.898 37.2151 32.201 37.243 29.5006 37.2499C29.1491 37.2499 29.0795 37.3578 29.0969 37.6745C29.1247 38.1408 29.1039 38.6106 29.1108 39.0804C29.1178 39.3727 28.989 39.578 28.7315 39.6859C28.4531 39.8042 28.1991 39.7346 28.0007 39.5084C26.5461 37.838 25.0705 36.1816 23.6472 34.4868C22.9129 33.6133 22.9199 32.3327 23.6472 31.4557C25.0392 29.7714 26.473 28.1184 27.8928 26.455C28.2721 25.9295 29.0795 26.2636 29.0238 26.9039C29.0169 27.3876 29.0412 27.8713 29.0273 28.3516C29.0203 28.5917 29.0934 28.6648 29.337 28.6613C30.9413 28.6508 32.549 28.6543 34.1533 28.6543C34.1812 28.4699 34.0628 28.369 33.9967 28.2541C33.1267 26.7647 32.2498 25.2753 31.3763 23.7823C30.823 22.8393 31.0248 22.0806 31.9679 21.5273C33.4712 20.6469 34.9711 19.7629 36.4745 18.879C37.4558 18.3013 38.2319 18.4962 38.8026 19.4671C40.2746 21.9693 41.7397 24.4749 43.2187 26.9735C43.4206 27.3145 43.518 27.6938 43.685 28.0453V29.1554V29.1624Z" fill="#85C226"/>
<path d="M22.1391 8.59907C21.1717 10.2555 20.2529 11.8598 19.2994 13.5093C18.7983 14.3689 18.0014 14.5847 17.1314 14.087C15.548 13.1787 13.9646 12.267 12.3882 11.3483C11.6017 10.8889 11.379 10.0676 11.8383 9.26722C13.3312 6.66767 14.8241 4.06463 16.3414 1.47552C16.9087 0.497639 17.7926 0 18.941 0C21.0568 0 23.1727 0.00347999 25.292 0C26.4926 0 27.3869 0.518519 27.9855 1.54512C29.3148 3.83495 30.6407 6.12479 31.9492 8.42507C32.1232 8.73131 32.2485 8.78003 32.5408 8.57471C32.9097 8.31719 33.3203 8.11535 33.7101 7.88567C34.2251 7.51679 34.9107 8.09099 34.6497 8.67215C33.9293 10.7079 33.2368 12.7577 32.499 14.7865C32.0466 16.0323 30.8634 16.617 29.468 16.349C27.453 15.9627 25.4416 15.5625 23.4267 15.1797C22.7272 15.0893 22.5741 14.2401 23.2144 13.9443C23.6355 13.7112 24.0392 13.4502 24.4672 13.2275C24.6899 13.1126 24.7004 13.0117 24.5821 12.8064C23.7677 11.4179 22.9673 10.0189 22.1391 8.58863V8.59907Z" fill="#85C226"/>
<path d="M9.47249 28.7099C11.6266 28.7552 13.645 28.616 15.7017 28.7726C16.3037 28.9257 16.7352 29.4964 16.7352 30.1263C16.7387 32.0159 16.7352 33.9056 16.7248 35.7952C16.7178 36.6756 16.1123 37.2846 15.211 37.2846C12.1556 37.2846 9.10361 37.2707 6.04818 37.2533C5.05986 37.1768 4.15854 36.7 3.67134 35.823C2.56122 33.9125 1.45806 32.002 0.382746 30.0741C-0.163614 29.0962 -0.111414 28.0905 0.452345 27.1196C1.78518 24.8332 3.11106 22.5434 4.4613 20.2675C4.66314 19.9299 4.60746 19.7977 4.28382 19.6411C3.91494 19.4636 3.57738 19.2235 3.21546 19.0286C2.9301 18.8755 2.7213 18.6736 2.77002 18.3291C2.82222 17.9707 3.0867 17.8141 3.42078 17.7549C5.5227 17.3756 7.62461 16.9893 9.73001 16.61C10.8958 16.4151 12.0512 17.0346 12.4583 18.1586C13.1961 20.2048 13.8851 22.2685 14.5846 24.3286C14.8352 24.9446 14.1461 25.4909 13.5998 25.0873C13.1787 24.8297 12.7472 24.5861 12.3191 24.3356C12.1973 24.266 12.1034 24.179 11.9885 24.3773C11.1812 25.7867 10.3599 27.1892 9.47597 28.7099H9.47249Z" fill="#85C226"/>
</svg>
