<svg width="52" height="58" viewBox="0 0 52 58" fill="none" xmlns="http://www.w3.org/2000/svg">
<path d="M26.712 57.4873C26.1822 57.2115 25.7975 56.7761 25.3838 56.3624C22.9306 53.8946 20.4556 51.4705 18.0169 48.9737C21.8419 47.1665 25.5943 45.4173 29.3902 43.61C29.637 43.4939 29.7894 43.4866 29.9999 43.6971C31.5241 45.2431 33.0628 46.76 34.587 48.306C35.349 49.0753 35.3418 50.0334 34.5724 50.81C32.2644 52.9946 30.1741 55.5132 27.7064 57.4728H26.7048L26.712 57.4873Z" fill="#F0F0F0"/>
<path d="M21.6974 5.86111C22.5103 5.86111 23.0111 6.4853 23.5337 7.01513C30.9804 14.4619 38.4271 21.9086 45.8811 29.3553C46.4618 29.9359 46.8101 30.5529 46.5053 31.3875C46.3093 31.9319 45.8666 32.2222 45.3658 32.4545C42.0126 34.0295 38.6594 35.6117 35.3062 37.1867C28.8538 40.2205 22.3942 43.2544 15.9418 46.3028C15.6225 46.4552 15.4483 46.4407 15.1942 46.1794C12.2402 43.2036 9.27896 40.2423 6.30318 37.2883C6.04189 37.027 6.04189 36.8383 6.18705 36.5335C10.8177 26.7061 15.441 16.8788 20.0571 7.04417C20.391 6.32562 20.899 5.89014 21.6974 5.85385V5.86111Z" fill="#F0F0F0"/>
<path d="M9.19194 52.1454C8.70565 52.1237 8.29195 51.9495 7.95082 51.6084C5.59197 49.2495 3.22586 46.8906 0.874259 44.5245C-0.940244 42.6302 2.33312 40.9681 3.37102 39.5746C3.60327 39.3351 3.7194 39.3786 3.92988 39.5891C6.91293 42.5866 9.90323 45.5769 12.8935 48.5527C13.1113 48.7705 13.133 48.8866 12.8935 49.1116C12.0516 49.9245 11.2314 50.7519 10.4113 51.5866C10.0702 51.935 9.65645 52.1092 9.18468 52.1454H9.19194Z" fill="#F0F0F0"/>
<path d="M44.9883 5.86111C46.3165 5.87563 47.1947 7.69739 46.1786 8.64819C44.9593 9.91834 43.7182 11.1667 42.448 12.3788C40.8803 13.7723 38.6811 11.4933 40.14 9.96915C41.3448 8.73528 42.5714 7.52319 43.798 6.31111C44.1101 5.99901 44.5165 5.86837 44.9956 5.85385L44.9883 5.86111Z" fill="#F0F0F0"/>
<path d="M32.2946 3.97392C32.3091 5.39649 32.5922 7.37793 30.6107 7.42874C29.6962 7.42874 28.9631 6.71745 28.9486 5.78117C28.9341 4.57634 28.9341 3.37151 28.9486 2.17394C28.9631 1.24491 29.6962 0.526367 30.6107 0.526367C32.5849 0.584431 32.3018 2.55861 32.2946 3.98118V3.97392Z" fill="#F0F0F0"/>
<path d="M48.4652 23.5417C47.0426 23.5707 45.1193 23.7812 45.0467 21.8578C45.0467 20.936 45.7217 20.2102 46.6797 20.1885C47.8991 20.1594 49.1257 20.1594 50.345 20.1885C51.2958 20.2175 51.9781 20.9578 51.9636 21.8723C51.8402 23.8175 49.9023 23.5489 48.4652 23.5344V23.5417Z" fill="#F0F0F0"/>
</svg>
