<svg width="59" height="58" viewBox="0 0 59 58" fill="none" xmlns="http://www.w3.org/2000/svg">
<path d="M9.12175 39.764C9.11453 38.0583 9.11453 36.3526 9.12175 34.6469C9.12175 33.9675 9.2374 33.8591 9.90233 33.8591C11.926 33.8518 13.9498 33.8518 15.9807 33.8591C16.6312 33.8591 16.7179 33.9458 16.7179 34.6107V39.7929C16.7179 40.4289 16.5806 40.5662 15.9229 40.5735C14.9255 40.5807 13.9353 40.5735 12.9379 40.5735H9.96015C9.25185 40.5662 9.12175 40.4506 9.12175 39.764V39.764Z" fill="#F0F0F0"/>
<path d="M16.7251 43.9487C16.7107 45.7123 16.7107 47.4758 16.7251 49.2393C16.7324 49.7814 16.5083 49.9765 15.9879 49.9693C13.9642 49.9404 11.9333 49.9765 9.90956 49.9621C9.26631 49.9621 9.12175 49.8392 9.12175 49.2248C9.11453 47.483 9.11453 45.7339 9.12175 43.9921C9.12175 43.3705 9.26631 43.2332 9.8951 43.226C11.9188 43.226 13.9425 43.2332 15.9735 43.226C16.4722 43.2187 16.7324 43.3994 16.7251 43.9487V43.9487Z" fill="#F0F0F0"/>
<path d="M27.5441 43.9416C27.5224 45.7268 27.5296 47.512 27.5368 49.29C27.5441 49.7742 27.3345 49.9693 26.8647 49.9693C24.7976 49.9621 22.7377 49.9477 20.6707 49.9693C20.1358 49.9838 19.9334 49.7453 19.9334 49.2321C19.9479 47.4686 19.9479 45.7051 19.9334 43.9416C19.9334 43.4429 20.143 43.2188 20.6417 43.226C22.7016 43.2333 24.7687 43.226 26.8285 43.226C27.32 43.226 27.5368 43.4356 27.5368 43.9416H27.5441Z" fill="#F0F0F0"/>
<path d="M27.5441 34.553C27.5224 36.3165 27.5224 38.08 27.5441 39.8435C27.5513 40.3928 27.3056 40.5735 26.7996 40.5735C24.7542 40.5735 22.7088 40.5663 20.6634 40.5735C20.143 40.5807 19.9334 40.3495 19.9334 39.8291C19.9479 38.08 19.9334 36.3382 19.9334 34.5891C19.9407 33.9531 20.0491 33.8591 20.7068 33.8591C22.745 33.8447 24.7976 33.8808 26.8358 33.8591C27.3489 33.8447 27.5368 34.0543 27.5368 34.5602L27.5441 34.553Z" fill="#F0F0F0"/>
<path d="M38.3568 25.1644C38.3424 26.9279 38.3424 28.6914 38.3568 30.4549C38.364 30.9536 38.1833 31.1705 37.6702 31.156C35.5887 31.1343 33.5071 31.1488 31.4256 31.156C30.9702 31.1632 30.7606 30.9753 30.7606 30.5272C30.7606 28.7131 30.7606 26.8918 30.7534 25.0704C30.7534 24.6223 30.9992 24.4344 31.4256 24.4344H37.6702C38.1617 24.4344 38.364 24.6584 38.3568 25.1644Z" fill="#F0F0F0"/>
<path d="M38.357 34.5603C38.3425 36.3238 38.3425 38.0873 38.357 39.8508C38.3642 40.3568 38.1546 40.5736 37.6704 40.5736C35.6033 40.5736 33.5434 40.5664 31.4764 40.5736C30.9487 40.5808 30.7464 40.3351 30.7536 39.8147C30.7681 38.0729 30.7608 36.331 30.7536 34.582C30.7536 34.076 30.9343 33.8303 31.4836 33.8447C33.5218 33.8737 35.5744 33.8664 37.6126 33.852C38.1329 33.8375 38.3642 34.011 38.357 34.5603V34.5603Z" fill="#F0F0F0"/>
<path d="M38.3568 43.9559C38.3424 45.7195 38.3424 47.483 38.3568 49.2465C38.364 49.7958 38.1255 49.9765 37.6124 49.9693C35.567 49.962 33.5216 49.9476 31.4762 49.9693C30.9775 49.9765 30.7534 49.7669 30.7534 49.2754C30.7606 47.4902 30.7606 45.705 30.7534 43.927C30.7534 43.4211 30.9919 43.2187 31.4834 43.226C33.5288 43.2332 35.5742 43.2332 37.6196 43.226C38.1255 43.2187 38.364 43.4139 38.3568 43.9559V43.9559Z" fill="#F0F0F0"/>
<path d="M49.1764 25.1572C49.1547 26.9207 49.1547 28.6843 49.1764 30.4478C49.1836 30.9971 48.9523 31.1705 48.4319 31.1561C46.3937 31.1416 44.3411 31.1416 42.3029 31.1561C41.797 31.1705 41.573 30.9826 41.5802 30.4767C41.5874 28.6987 41.5874 26.9135 41.5802 25.1355C41.5802 24.6224 41.8187 24.4272 42.3029 24.4345H48.4897C48.9812 24.4345 49.1908 24.6513 49.1836 25.1572H49.1764Z" fill="#F0F0F0"/>
<path d="M49.1766 39.8362C49.1838 40.3855 48.9453 40.5807 48.4394 40.5735C47.4275 40.5662 46.4157 40.5735 45.4038 40.5735H42.4188C41.7033 40.5662 41.5804 40.4578 41.5804 39.7712C41.5804 38.0438 41.5804 36.3237 41.5804 34.5963C41.5877 33.9458 41.6816 33.8591 42.3466 33.8591C44.3703 33.8518 46.394 33.8518 48.4249 33.8591C49.0827 33.8591 49.1694 33.9386 49.1694 34.6035C49.1694 36.3526 49.1549 38.0944 49.1766 39.8362V39.8362Z" fill="#F0F0F0"/>
<path d="M49.1764 43.9559C49.1547 45.7195 49.1547 47.483 49.1764 49.2465C49.1836 49.7958 48.9451 49.9765 48.4319 49.9693C46.3793 49.9476 44.3483 49.962 42.2957 49.9693C41.7898 49.9765 41.573 49.7741 41.5802 49.2754C41.5874 47.4902 41.5874 45.705 41.5802 43.927C41.5802 43.4139 41.8115 43.2187 42.2957 43.226C44.3411 43.2332 46.3865 43.2332 48.4319 43.226C48.9451 43.2187 49.1836 43.4139 49.1764 43.9559V43.9559Z" fill="#F0F0F0"/>
<path d="M58.2622 8.83733C58.2694 6.54619 56.2312 5.00672 54.4894 5.04286C52.8198 5.07177 51.1503 5.04286 49.4807 5.05009C48.5194 5.05731 48.4255 5.15127 48.4255 6.12699C48.4182 8.13625 48.4255 10.1455 48.4182 12.1548C48.4182 13.1377 48.0713 14.005 47.2402 14.5254C44.2841 16.5564 39.5862 15.053 39.7813 11.0634C39.7596 9.41553 39.7813 7.76042 39.7741 6.10531C39.7741 5.15127 39.6729 5.05731 38.6972 5.05009C38.6249 5.03563 20.5705 5.06454 20.5054 5.05009C20.2814 5.05009 20.0573 5.05009 19.8333 5.08622C19.5803 5.12959 19.4357 5.27414 19.3924 5.52711C19.349 5.75116 19.3562 5.97521 19.349 6.2065C19.349 7.87606 19.3707 9.54563 19.3418 11.2152C19.3924 14.164 16.8916 15.783 14.2102 15.3783C12.1359 15.1181 10.7193 13.5136 10.7121 11.432C10.7048 9.70463 10.7121 7.97725 10.7048 6.24986C10.7048 5.11513 10.6398 5.05009 9.48339 5.05009H4.47469C2.31365 5.05009 0.983784 6.09085 0.49231 8.16516V54.2481C0.976556 56.2862 1.88723 57.1102 3.97599 57.4065C4.37351 57.4643 4.7638 57.4788 5.15408 57.4788H53.4848C55.7831 57.5944 58.2044 56.532 58.255 53.5615C58.2188 38.6582 58.2116 23.7478 58.2622 8.83733V8.83733ZM54.4822 52.911C54.4894 53.4241 54.3521 53.547 53.8389 53.547C37.5046 53.5325 21.1704 53.5325 4.83607 53.547C4.32292 53.547 4.19282 53.4169 4.19282 52.9037C4.20727 42.0913 4.2145 31.2717 4.19282 20.4592C4.19282 19.9461 4.33737 19.8594 4.80716 19.8594C12.996 19.8738 21.1848 19.8738 29.3664 19.8738C37.548 19.8738 45.7079 19.8738 53.8751 19.8594C54.3521 19.8594 54.4894 19.9533 54.4894 20.4592C54.4677 31.2789 54.4677 42.0913 54.4822 52.911V52.911Z" fill="#F0F0F0"/>
<path d="M9.12175 39.764C9.11453 38.0583 9.11453 36.3526 9.12175 34.6469C9.12175 33.9675 9.2374 33.8591 9.90233 33.8591C11.926 33.8518 13.9498 33.8518 15.9807 33.8591C16.6312 33.8591 16.7179 33.9458 16.7179 34.6107V39.7929C16.7179 40.4289 16.5806 40.5662 15.9229 40.5735C14.9255 40.5807 13.9353 40.5735 12.9379 40.5735H9.96015C9.25185 40.5662 9.12175 40.4506 9.12175 39.764V39.764Z" fill="#F0F0F0"/>
<path d="M16.7251 43.9487C16.7107 45.7123 16.7107 47.4758 16.7251 49.2393C16.7324 49.7814 16.5083 49.9765 15.9879 49.9693C13.9642 49.9404 11.9333 49.9765 9.90956 49.9621C9.26631 49.9621 9.12175 49.8392 9.12175 49.2248C9.11453 47.483 9.11453 45.7339 9.12175 43.9921C9.12175 43.3705 9.26631 43.2332 9.8951 43.226C11.9188 43.226 13.9425 43.2332 15.9735 43.226C16.4722 43.2187 16.7324 43.3994 16.7251 43.9487V43.9487Z" fill="#F0F0F0"/>
<path d="M27.5441 43.9416C27.5224 45.7268 27.5296 47.512 27.5368 49.29C27.5441 49.7742 27.3345 49.9693 26.8647 49.9693C24.7976 49.9621 22.7377 49.9477 20.6707 49.9693C20.1358 49.9838 19.9334 49.7453 19.9334 49.2321C19.9479 47.4686 19.9479 45.7051 19.9334 43.9416C19.9334 43.4429 20.143 43.2188 20.6417 43.226C22.7016 43.2333 24.7687 43.226 26.8285 43.226C27.32 43.226 27.5368 43.4356 27.5368 43.9416H27.5441Z" fill="#F0F0F0"/>
<path d="M27.5441 34.553C27.5224 36.3165 27.5224 38.08 27.5441 39.8435C27.5513 40.3928 27.3056 40.5735 26.7996 40.5735C24.7542 40.5735 22.7088 40.5663 20.6634 40.5735C20.143 40.5807 19.9334 40.3495 19.9334 39.8291C19.9479 38.08 19.9334 36.3382 19.9334 34.5891C19.9407 33.9531 20.0491 33.8591 20.7068 33.8591C22.745 33.8447 24.7976 33.8808 26.8358 33.8591C27.3489 33.8447 27.5368 34.0543 27.5368 34.5602L27.5441 34.553Z" fill="#F0F0F0"/>
<path d="M38.3568 25.1644C38.3424 26.9279 38.3424 28.6914 38.3568 30.4549C38.364 30.9536 38.1833 31.1705 37.6702 31.156C35.5887 31.1343 33.5071 31.1488 31.4256 31.156C30.9702 31.1632 30.7606 30.9753 30.7606 30.5272C30.7606 28.7131 30.7606 26.8918 30.7534 25.0704C30.7534 24.6223 30.9992 24.4344 31.4256 24.4344H37.6702C38.1617 24.4344 38.364 24.6584 38.3568 25.1644Z" fill="#F0F0F0"/>
<path d="M38.357 34.5603C38.3425 36.3238 38.3425 38.0873 38.357 39.8508C38.3642 40.3568 38.1546 40.5736 37.6704 40.5736C35.6033 40.5736 33.5434 40.5664 31.4764 40.5736C30.9487 40.5808 30.7464 40.3351 30.7536 39.8147C30.7681 38.0729 30.7608 36.331 30.7536 34.582C30.7536 34.076 30.9343 33.8303 31.4836 33.8447C33.5218 33.8737 35.5744 33.8664 37.6126 33.852C38.1329 33.8375 38.3642 34.011 38.357 34.5603V34.5603Z" fill="#F0F0F0"/>
<path d="M38.3568 43.9559C38.3424 45.7195 38.3424 47.483 38.3568 49.2465C38.364 49.7958 38.1255 49.9765 37.6124 49.9693C35.567 49.962 33.5216 49.9476 31.4762 49.9693C30.9775 49.9765 30.7534 49.7669 30.7534 49.2754C30.7606 47.4902 30.7606 45.705 30.7534 43.927C30.7534 43.4211 30.9919 43.2187 31.4834 43.226C33.5288 43.2332 35.5742 43.2332 37.6196 43.226C38.1255 43.2187 38.364 43.4139 38.3568 43.9559V43.9559Z" fill="#F0F0F0"/>
<path d="M49.1764 25.1572C49.1547 26.9207 49.1547 28.6843 49.1764 30.4478C49.1836 30.9971 48.9523 31.1705 48.4319 31.1561C46.3937 31.1416 44.3411 31.1416 42.3029 31.1561C41.797 31.1705 41.573 30.9826 41.5802 30.4767C41.5874 28.6987 41.5874 26.9135 41.5802 25.1355C41.5802 24.6224 41.8187 24.4272 42.3029 24.4345H48.4897C48.9812 24.4345 49.1908 24.6513 49.1836 25.1572H49.1764Z" fill="#F0F0F0"/>
<path d="M49.1766 39.8362C49.1838 40.3855 48.9453 40.5807 48.4394 40.5735C47.4275 40.5662 46.4157 40.5735 45.4038 40.5735H42.4188C41.7033 40.5662 41.5804 40.4578 41.5804 39.7712C41.5804 38.0438 41.5804 36.3237 41.5804 34.5963C41.5877 33.9458 41.6816 33.8591 42.3466 33.8591C44.3703 33.8518 46.394 33.8518 48.4249 33.8591C49.0827 33.8591 49.1694 33.9386 49.1694 34.6035C49.1694 36.3526 49.1549 38.0944 49.1766 39.8362V39.8362Z" fill="#F0F0F0"/>
<path d="M49.1764 43.9559C49.1547 45.7195 49.1547 47.483 49.1764 49.2465C49.1836 49.7958 48.9451 49.9765 48.4319 49.9693C46.3793 49.9476 44.3483 49.962 42.2957 49.9693C41.7898 49.9765 41.573 49.7741 41.5802 49.2754C41.5874 47.4902 41.5874 45.705 41.5802 43.927C41.5802 43.4139 41.8115 43.2187 42.2957 43.226C44.3411 43.2332 46.3865 43.2332 48.4319 43.226C48.9451 43.2187 49.1836 43.4139 49.1764 43.9559V43.9559Z" fill="#F0F0F0"/>
<path d="M12.324 7.18216C12.324 5.75833 12.324 4.32728 12.324 2.90345C12.3313 1.60249 13.2925 0.633994 14.5935 0.619538C16.133 0.409939 17.7013 1.16161 17.7013 2.92513C17.7302 5.78002 17.7375 8.6349 17.7013 11.4826C17.6797 12.863 16.6823 13.7665 15.3018 13.7882C13.878 13.9833 12.3313 13.1521 12.3313 11.5765C12.3168 10.1093 12.3313 8.64936 12.3313 7.18216H12.324Z" fill="#F0F0F0"/>
<path d="M46.813 7.1461C46.6251 10.3479 47.9911 14.4459 43.0909 13.6364C42.079 13.3546 41.4285 12.48 41.4213 11.3092C41.4068 8.53379 41.3924 5.75118 41.4213 2.9758C41.443 1.28455 42.6572 0.373879 44.5508 0.547341C45.9674 0.677437 46.7914 1.5592 46.8058 2.98303C46.8203 4.37072 46.8058 5.75841 46.8058 7.15333L46.813 7.1461Z" fill="#F0F0F0"/>
<path d="M38.3568 43.9559C38.3424 45.7195 38.3424 47.483 38.3568 49.2465C38.364 49.7958 38.1255 49.9765 37.6124 49.9693C35.567 49.962 33.5216 49.9476 31.4762 49.9693C30.9775 49.9765 30.7534 49.7669 30.7534 49.2754C30.7606 47.4902 30.7606 45.705 30.7534 43.927C30.7534 43.4211 30.9919 43.2187 31.4834 43.226C33.5288 43.2332 35.5742 43.2332 37.6196 43.226C38.1255 43.2187 38.364 43.4139 38.3568 43.9559V43.9559Z" fill="#F0F0F0"/>
<path d="M49.1764 43.9559C49.1547 45.7195 49.1547 47.483 49.1764 49.2465C49.1836 49.7958 48.9451 49.9765 48.4319 49.9693C46.3793 49.9476 44.3483 49.962 42.2957 49.9693C41.7898 49.9765 41.573 49.7741 41.5802 49.2754C41.5874 47.4902 41.5874 45.705 41.5802 43.927C41.5802 43.4139 41.8115 43.2187 42.2957 43.226C44.3411 43.2332 46.3865 43.2332 48.4319 43.226C48.9451 43.2187 49.1836 43.4139 49.1764 43.9559V43.9559Z" fill="#F0F0F0"/>
<path d="M16.7251 43.9487C16.7107 45.7123 16.7107 47.4758 16.7251 49.2393C16.7324 49.7814 16.5083 49.9765 15.9879 49.9693C13.9642 49.9404 11.9333 49.9765 9.90956 49.9621C9.26631 49.9621 9.12175 49.8392 9.12175 49.2248C9.11453 47.483 9.11453 45.7339 9.12175 43.9921C9.12175 43.3705 9.26631 43.2332 9.8951 43.226C11.9188 43.226 13.9425 43.2332 15.9735 43.226C16.4722 43.2187 16.7324 43.3994 16.7251 43.9487V43.9487Z" fill="#F0F0F0"/>
<path d="M27.5368 49.29C27.5441 49.7742 27.3345 49.9693 26.8647 49.9693C24.7976 49.9621 22.7377 49.9477 20.6707 49.9693C20.1358 49.9838 19.9334 49.7453 19.9334 49.2321C19.9479 47.4686 19.9479 45.7051 19.9334 43.9416C19.9334 43.4429 20.143 43.2188 20.6417 43.226C22.7016 43.2333 24.7687 43.226 26.8285 43.226C27.32 43.226 27.5368 43.4356 27.5368 43.9416C27.5151 45.7268 27.5224 47.512 27.5296 49.29H27.5368Z" fill="#F0F0F0"/>
<path d="M38.3568 25.1644C38.3424 26.9279 38.3424 28.6914 38.3568 30.4549C38.364 30.9536 38.1833 31.1705 37.6702 31.156C35.5887 31.1343 33.5071 31.1488 31.4256 31.156C30.9702 31.1632 30.7606 30.9753 30.7606 30.5272C30.7606 28.7131 30.7606 26.8918 30.7534 25.0704C30.7534 24.6223 30.9992 24.4344 31.4256 24.4344H37.6702C38.1617 24.4344 38.364 24.6584 38.3568 25.1644Z" fill="#F0F0F0"/>
<path d="M49.1764 25.1572C49.1547 26.9207 49.1547 28.6843 49.1764 30.4478C49.1836 30.9971 48.9523 31.1705 48.4319 31.1561C46.3937 31.1416 44.3411 31.1416 42.3029 31.1561C41.797 31.1705 41.573 30.9826 41.5802 30.4767C41.5874 28.6987 41.5874 26.9135 41.5802 25.1355C41.5802 24.6224 41.8187 24.4272 42.3029 24.4345H48.4897C48.9812 24.4345 49.1908 24.6513 49.1836 25.1572H49.1764Z" fill="#F0F0F0"/>
<path d="M16.7179 34.6107V39.7929C16.7179 40.4289 16.5806 40.5662 15.9229 40.5735C14.1955 40.5879 11.7092 40.5735 9.96015 40.5735C9.25185 40.5662 9.12175 40.4506 9.12175 39.764C9.11453 38.0583 9.11453 36.3526 9.12175 34.6469C9.12175 33.9675 9.2374 33.8591 9.90233 33.8591C11.926 33.8518 13.9498 33.8518 15.9807 33.8591C16.6312 33.8591 16.7179 33.9458 16.7179 34.6107Z" fill="#F0F0F0"/>
<path d="M27.5441 34.553C27.5224 36.3165 27.5224 38.08 27.5441 39.8435C27.5513 40.3928 27.3056 40.5735 26.7996 40.5735C24.7542 40.5735 22.7088 40.5663 20.6634 40.5735C20.143 40.5807 19.9334 40.3495 19.9334 39.8291C19.9479 38.08 19.9334 36.3382 19.9334 34.5891C19.9407 33.9531 20.0491 33.8591 20.7068 33.8591C22.745 33.8447 24.7976 33.8808 26.8358 33.8591C27.3489 33.8447 27.5368 34.0543 27.5368 34.5602L27.5441 34.553Z" fill="#F0F0F0"/>
<path d="M38.357 34.5603C38.3425 36.3238 38.3425 38.0873 38.357 39.8508C38.3642 40.3568 38.1546 40.5736 37.6704 40.5736C35.6033 40.5736 33.5434 40.5664 31.4764 40.5736C30.9487 40.5808 30.7464 40.3351 30.7536 39.8147C30.7681 38.0729 30.7608 36.331 30.7536 34.582C30.7536 34.076 30.9343 33.8303 31.4836 33.8447C33.5218 33.8737 35.5744 33.8664 37.6126 33.852C38.1329 33.8375 38.3642 34.011 38.357 34.5603V34.5603Z" fill="#F0F0F0"/>
<path d="M49.1766 39.8362C49.1838 40.3855 48.9453 40.5807 48.4394 40.5735C47.4275 40.5662 46.4157 40.5735 45.4038 40.5735H42.4188C41.7033 40.5662 41.5804 40.4578 41.5804 39.7712C41.5804 38.0438 41.5804 36.3237 41.5804 34.5963C41.5877 33.9458 41.6816 33.8591 42.3466 33.8591C44.3703 33.8518 46.394 33.8518 48.4249 33.8591C49.0827 33.8591 49.1694 33.9386 49.1694 34.6035C49.1694 36.3526 49.1549 38.0944 49.1766 39.8362V39.8362Z" fill="#F0F0F0"/>
</svg>
