<svg width="46" height="35" viewBox="0 0 46 35" fill="none" xmlns="http://www.w3.org/2000/svg">
<path d="M2.6004 23.7399C2.6004 17.6132 2.6004 11.4889 2.6004 5.36705C2.6004 5.2477 2.55339 5.20792 2.43765 5.1826C1.27308 4.9439 0.477404 5.32365 0 6.35079V30.8467C0.0253169 30.872 0.0614838 30.8937 0.0759506 30.9262C0.408687 31.7183 0.980125 32.0836 1.81196 31.9136C4.57173 31.3085 7.38214 30.9634 10.2063 30.8828C12.7137 30.8153 15.2198 31.0583 17.6676 31.6062C14.6006 28.7381 10.5065 27.8231 6.4558 27.7436C5.93634 27.7455 5.42188 27.6421 4.94348 27.4397C4.46509 27.2372 4.03267 26.94 3.67235 26.5658C3.31203 26.1916 3.03127 25.7483 2.84704 25.2626C2.6628 24.7769 2.5789 24.2589 2.6004 23.7399Z" fill="#85C226"/>
<path d="M19.7582 7.00178C19.7642 6.67428 19.6737 6.35225 19.4978 6.07591C18.4944 4.49973 17.1308 3.1845 15.5194 2.2386C12.7129 0.592999 9.63869 0.068578 6.45238 0.00347752C6.24389 -0.00558468 6.03584 0.0293531 5.84175 0.106017C5.64765 0.182681 5.47188 0.299354 5.32586 0.448442C5.17985 0.597531 5.06686 0.775694 4.99425 0.971337C4.92164 1.16698 4.89104 1.37572 4.90443 1.58397C4.90443 9.01749 4.90443 16.4486 4.90443 23.8773C4.89398 24.0819 4.92573 24.2864 4.99771 24.4783C5.06968 24.6701 5.18034 24.845 5.32281 24.9922C5.46528 25.1395 5.63651 25.2558 5.82586 25.334C6.0152 25.4122 6.21861 25.4507 6.42345 25.4469C11.2554 25.4976 16.2789 26.7923 19.7257 30.3837C19.8233 22.597 19.7257 14.7921 19.7582 7.00178Z" fill="#85C226"/>
<path d="M26.9726 10.9077C29.8189 9.54425 33.0776 8.82815 36.9112 8.73773C36.9112 6.35794 36.9112 3.97575 36.9112 1.59114C36.9251 1.37873 36.8935 1.1658 36.8183 0.966629C36.7432 0.767457 36.6264 0.586639 36.4757 0.436293C36.325 0.285946 36.144 0.169544 35.9446 0.0948854C35.7453 0.0202273 35.5323 -0.0109621 35.3199 0.0034074C30.7701 0.0576578 25.9961 1.34882 23.0448 5.04508C22.3801 5.79974 22.0181 6.77367 22.0285 7.7793C22.0527 10.0482 22.0647 12.3158 22.0647 14.5823C23.405 13.0055 25.0822 11.7498 26.9726 10.9077Z" fill="#85C226"/>
<path d="M39.2352 8.73769H39.3292C39.4775 8.75577 39.6909 8.78832 39.8536 8.80279H39.879H39.9115L41.8139 9.03426C41.7162 7.12103 42.4468 4.99441 39.6692 5.17163C39.3075 5.12099 39.2026 5.25481 39.2026 5.63095C39.2026 6.66171 39.2026 7.69608 39.2026 8.72684L39.2352 8.73769Z" fill="#85C226"/>
<path d="M38.138 29.5445L38.0765 29.5952C37.1088 30.2682 36.0338 30.772 34.8975 31.0853C36.581 31.2611 38.2525 31.5376 39.903 31.9135C40.1407 31.9683 40.388 31.967 40.6252 31.9098C40.8623 31.8526 41.083 31.741 41.2696 31.5838C41.4562 31.4266 41.6037 31.2282 41.7005 31.0042C41.7972 30.7802 41.8406 30.5368 41.8271 30.2932C41.8078 28.1087 41.7993 25.9242 41.8017 23.7397C41.2701 25.6602 40.4238 27.7073 38.138 29.5445Z" fill="#85C226"/>
<path d="M45.5408 12.2352C44.4053 11.8296 43.2379 11.5198 42.0507 11.3093C41.9964 11.3093 41.9313 11.3093 41.9132 11.2442H41.8626H41.8156C41.651 11.2554 41.4859 11.232 41.3309 11.1755L39.8843 10.9982C39.7044 11.0184 39.5223 10.9961 39.3526 10.9331H39.2079H39.1573C38.4123 10.9114 37.66 10.9006 36.9113 10.9331C30.8642 10.8536 21.45 14.0833 22.0648 21.1141C22.2552 22.7583 22.8793 24.3223 23.8731 25.6459C25.7021 22.5089 28.5138 20.062 31.8733 18.6837C31.9575 18.6434 32.0491 18.621 32.1424 18.6181C32.2357 18.6151 32.3286 18.6315 32.4152 18.6664C32.5018 18.7013 32.5801 18.7538 32.6453 18.8206C32.7105 18.8874 32.7611 18.967 32.7938 19.0544C32.8266 19.1418 32.8408 19.2351 32.8355 19.3283C32.8303 19.4215 32.8057 19.5125 32.7633 19.5957C32.721 19.6789 32.6618 19.7523 32.5895 19.8114C32.5172 19.8704 32.4334 19.9138 32.3435 19.9387C28.0757 21.7037 25.4609 24.7308 23.7176 28.9371C23.123 30.3041 22.6392 31.7168 22.271 33.1614C22.2463 33.2495 22.2395 33.3416 22.2508 33.4324C22.262 33.5231 22.2912 33.6108 22.3367 33.6902C22.3821 33.7696 22.4428 33.8392 22.5154 33.8949C22.5879 33.9507 22.6708 33.9914 22.7592 34.0149C23.6019 34.2247 23.667 33.1216 23.8442 32.514C24.3277 30.8362 24.9922 29.2161 25.8262 27.6821C25.8985 27.5519 25.9455 27.5627 26.054 27.6314C26.9854 28.2309 28.0042 28.6824 29.074 28.9696C31.6382 29.6604 34.5641 29.3819 36.7775 27.852C37.1344 27.5679 37.4682 27.2559 37.7757 26.9189C38.3778 26.4469 38.8147 25.796 39.0235 25.06C40.1953 22.6151 40.0325 19.9351 41.8083 17.2841C42.1678 16.7467 42.5797 16.2463 43.038 15.7904C43.8621 14.9385 44.7548 14.1559 45.7071 13.4504C45.8106 13.3774 45.892 13.2774 45.9424 13.1614C45.9929 13.0453 46.0105 12.9176 45.9934 12.7922C45.9762 12.6668 45.9249 12.5485 45.8451 12.4503C45.7653 12.352 45.66 12.2776 45.5408 12.2352Z" fill="#85C226"/>
</svg>
