<svg width="39" height="39" viewBox="0 0 39 39" fill="none" xmlns="http://www.w3.org/2000/svg">
<path d="M38.5963 23.8962C38.2089 22.0353 37.4493 20.3072 36.5834 18.6324C33.5223 12.7001 29.5687 7.37541 25.4138 2.18369C25.1517 1.85327 25.0834 2.13811 24.9732 2.27484C22.4476 5.4119 20.055 8.6477 17.8332 12.005C15.8431 15.0206 13.9897 18.1045 12.6035 21.458C8.92714 29.7222 16.5001 39.141 25.1707 38.8561C30.6625 38.7992 35.444 35.9849 37.6962 30.9223C38.7178 28.693 39.1052 26.3383 38.5963 23.8962ZM34.8668 27.151C34.5022 30.5577 31.3043 33.41 27.8141 32.8099C27.6849 32.7909 27.5026 32.7567 27.4533 32.6656C27.3697 32.5213 27.5672 32.4491 27.6546 32.3579C28.5547 31.3781 29.6333 30.5729 30.4194 29.4829C32.1247 27.0941 32.8273 24.1811 32.6108 21.2757C33.2185 21.5188 33.6172 21.9783 33.9439 22.4834C34.5439 23.3987 34.9731 24.39 35.0832 25.499C35.144 26.0648 34.9351 26.6003 34.8668 27.151Z" fill="#85C226"/>
<path d="M15.2959 8.73136C15.4212 8.54906 15.5579 8.40094 15.3908 8.13129C13.6438 5.34743 11.7638 2.66232 9.6864 0C6.46579 4.37138 -0.928711 13.5851 0.0967201 19.0236C0.689191 22.8671 3.58698 26.0687 7.36968 26.9536C7.73048 27.0372 7.76846 26.9233 7.76087 26.6156C7.60515 23.3077 8.86605 20.1516 10.2751 17.2234C11.7145 14.2535 13.4349 11.4506 15.2959 8.72756V8.73136Z" fill="#85C226"/>
</svg>
