<svg width="36" height="37" viewBox="0 0 36 37" fill="none" xmlns="http://www.w3.org/2000/svg">
<path d="M26.4594 5.80597C26.4125 4.89911 25.9929 4.43005 25.0757 4.43005C21.1069 4.45089 17.198 3.24696 14.3315 0.419551C14.1337 0.200374 13.8689 0.0528493 13.5784 0L12.9686 0C12.4631 0.0703596 12.1556 0.521182 11.7934 0.823467C8.92685 3.39811 5.16131 4.47174 1.34887 4.44307C0.567096 4.44307 0.124092 4.94341 0.0928211 5.71476C0.0276733 7.24182 0.038097 8.76888 0.0328851 10.2986C-0.363213 19.9013 2.76388 27.8233 12.4083 31.1693C13.4507 31.6071 14.4696 31.0468 15.4234 30.6663C11.9836 24.3105 14.7015 15.7162 22.1987 14.2257C23.7423 13.8526 25.2077 13.2095 26.5272 12.3259C26.5793 10.163 26.4907 7.97408 26.4594 5.80597ZM19.1368 12.597C16.9061 14.6817 14.6781 16.776 12.4526 18.8798C12.213 19.1149 11.8919 19.2484 11.5562 19.2525C11.2749 19.2412 11.0088 19.1217 10.8135 18.9189C9.6843 17.6663 8.549 16.4129 7.40761 15.1586C7.32422 15.0648 7.30598 15.01 7.40761 14.9162C7.88449 14.5019 8.35876 14.0849 8.82262 13.655C8.98679 13.5012 9.04151 13.6289 9.12751 13.7227C9.90928 14.6009 10.7119 15.4765 11.4963 16.3599C11.6474 16.5293 11.7256 16.5553 11.908 16.3807C13.7869 14.5931 15.6762 12.795 17.555 10.9969C17.7296 10.8302 17.8156 10.838 17.9694 11.0126C18.3472 11.4399 18.7511 11.8543 19.1368 12.266C19.2567 12.3911 19.2827 12.4589 19.1368 12.597Z" fill="#85C226"/>
<path d="M25.5367 35.5029C23.9732 35.5029 22.209 35.0026 20.2858 33.869C22.295 32.9309 28.8853 25.1992 26.8944 23.4011C26.7959 23.3659 26.6911 23.3517 26.5867 23.3592C26.4824 23.3668 26.3807 23.396 26.2883 23.4451C26.1959 23.4941 26.1147 23.5619 26.0499 23.644C25.9851 23.7262 25.9381 23.821 25.912 23.9223C24.0514 30.3406 18.1724 34.2339 12.1293 36.2717C11.199 36.6105 10.5502 35.2293 11.6368 34.8332C13.8883 34.098 16.0305 33.0628 18.0057 31.7556C13.6251 26.4526 14.9776 17.3059 22.5556 15.7449C26.5114 14.7026 28.9844 12.9462 31.3688 9.3787C33.1747 5.90242 34.0216 10.8536 34.6835 12.4537C34.8737 13.4596 35.077 14.4811 35.2985 15.4817C36.9402 22.9972 33.4248 35.5029 25.5367 35.5029Z" fill="#85C226"/>
</svg>
