<svg width="58" height="58" viewBox="0 0 58 58" fill="none" xmlns="http://www.w3.org/2000/svg">
<path d="M57.5511 31.4445C57.5511 23.0762 57.5176 14.708 57.5763 6.33979C57.593 3.3996 54.7617 0.526428 51.8718 0.526428C36.6683 0.551558 21.4647 0.534805 6.26958 0.543181C3.34614 0.559935 0.858293 2.8635 0.606995 5.81206V40.265C0.833163 43.557 3.85712 45.8271 7.02347 45.7433C11.3542 45.7852 15.6765 45.7685 20.0072 45.7433C20.5936 45.7433 20.9035 45.9444 21.1548 46.4637C22.5453 49.3034 23.961 52.1347 25.3934 54.9576C26.03 56.2057 26.8509 57.2779 28.3922 57.4873H29.7241C31.1983 57.3365 32.1952 56.0633 32.8066 54.8152C34.1637 52.1012 35.5458 49.3955 36.8609 46.6648C37.196 45.9695 37.6148 45.7517 38.3603 45.7601C42.5989 45.7936 46.8375 45.7685 51.076 45.7768C54.5691 45.7768 57.7689 43.1633 57.5763 39.2766C57.4506 36.6715 57.5511 34.058 57.5511 31.4445V31.4445ZM34.2809 20.6303C34.0296 27.6164 24.0699 27.608 23.8353 20.6219C23.8269 18.0838 23.8269 15.5457 23.8353 13.0159C23.8437 10.4108 25.7871 8.11563 28.2246 7.81407C31.0308 7.47063 33.4349 9.05381 34.1134 11.7008C34.5155 14.641 34.1804 17.665 34.2809 20.6303V20.6303ZM29.0539 40.1645C26.1724 40.1645 23.8353 37.8358 23.8353 34.9626C24.1201 28.0184 33.9961 28.0184 34.2809 34.971C34.2726 37.8442 31.9355 40.1645 29.0539 40.1645ZM29.0539 33.0444C26.5326 33.0863 26.5493 36.8641 29.0874 36.8641C31.5753 36.7887 31.5502 33.0863 29.0539 33.0444Z" fill="#F0F0F0"/>
<path d="M30.9557 13.0577C30.964 15.5707 30.964 18.0837 30.9557 20.5967C30.9557 23.2269 27.1778 23.2353 27.1527 20.6134C27.1527 18.1005 27.1527 15.5791 27.1527 13.0661C27.1611 11.9018 27.9652 11.0557 29.0458 11.0474C30.1264 11.0474 30.9473 11.8934 30.9557 13.0577Z" fill="#F0F0F0"/>
<path d="M30.9557 13.0577C30.964 15.5707 30.964 18.0837 30.9557 20.5967C30.9557 23.2269 27.1778 23.2353 27.1527 20.6134C27.1527 18.1005 27.1527 15.5791 27.1527 13.0661C27.1611 11.9018 27.9652 11.0557 29.0458 11.0474C30.1264 11.0474 30.9473 11.8934 30.9557 13.0577Z" fill="#F0F0F0"/>
<path d="M30.9557 34.9375C30.9389 37.4588 27.2448 37.4923 27.1527 34.9961C27.1527 32.4496 30.8803 32.4077 30.9557 34.9375Z" fill="#F0F0F0"/>
<path d="M30.9557 13.0577C30.964 15.5707 30.964 18.0837 30.9557 20.5967C30.9557 23.2269 27.1778 23.2353 27.1527 20.6134C27.1527 18.1005 27.1527 15.5791 27.1527 13.0661C27.1611 11.9018 27.9652 11.0557 29.0458 11.0474C30.1264 11.0474 30.9473 11.8934 30.9557 13.0577Z" fill="#F0F0F0"/>
<path d="M30.9557 34.9375C30.9389 37.4588 27.2448 37.4923 27.1527 34.9961C27.1527 32.4496 30.8803 32.4077 30.9557 34.9375Z" fill="#F0F0F0"/>
</svg>
