<svg width="58" height="58" viewBox="0 0 58 58" fill="none" xmlns="http://www.w3.org/2000/svg">
<path d="M27.3705 0.526367C28.0136 0.824952 28.4883 1.33025 28.9783 1.82024C32.3086 5.15061 35.639 8.47333 38.9694 11.8037C40.914 13.6105 38.8316 16.4739 36.596 15.2872C36.2592 15.0881 36.1137 15.1494 35.8687 15.3944C34.4523 16.8337 33.0283 18.2654 31.5737 19.6741C31.2445 19.9957 31.3134 20.1411 31.5966 20.4244C40.0489 28.8613 48.4858 37.306 56.9381 45.7352C59.6101 48.1775 56.5553 51.9826 53.6843 49.9154C45.0636 41.3713 36.5041 32.7506 27.9217 24.1605C27.5696 23.8007 27.4088 23.839 27.0872 24.1759C25.7015 25.5922 24.2928 26.9933 22.8764 28.3867C22.6238 28.6317 22.5242 28.8001 22.7386 29.1599C23.2822 30.0633 23.0142 31.2194 22.195 31.8395C21.3682 32.4673 20.2044 32.4291 19.4465 31.6941C18.4053 30.6911 17.3947 29.6576 16.3764 28.6317C13.7963 26.0516 11.2163 23.4638 8.62853 20.8838C8.0237 20.2789 7.82464 19.5516 8.05432 18.7477C8.36822 17.4692 10.0296 16.7801 11.132 17.5228C11.3924 17.6912 11.5378 17.6989 11.7752 17.4615C16.1468 13.0746 20.5337 8.70301 24.9129 4.33142C25.066 4.1783 25.2115 4.07877 25.0431 3.78784C24.2928 2.48631 24.7445 1.22307 26.1455 0.625896C26.1915 0.610584 26.2221 0.556991 26.2527 0.526367H27.3628L27.3705 0.526367Z" fill="#F0F0F0"/>
<path d="M0.994934 48.9125C1.20165 48.4838 1.28586 48.0091 1.53086 47.6033C2.41896 46.1257 3.74345 45.406 5.44309 45.406C14.8217 45.406 24.208 45.3907 33.5867 45.406C36.2663 45.406 38.0348 47.2741 38.0348 49.9614C38.0348 52.2812 38.0195 54.5933 38.0501 56.9131C38.0501 57.3724 37.9506 57.4873 37.4836 57.4873C25.3182 57.4719 13.1527 57.4719 0.994934 57.4719V48.9048L0.994934 48.9125Z" fill="#F0F0F0"/>
</svg>
