<svg width="58" height="58" viewBox="0 0 58 58" fill="none" xmlns="http://www.w3.org/2000/svg">
<path d="M28.8414 19.8978C29.184 24.2269 26.3704 28.1408 22.1467 28.9974C15.0634 30.4405 9.90403 23.2978 12.5463 17.3148C12.6583 17.0183 12.7308 16.9919 12.9944 17.1896C14.6417 18.4416 16.9149 17.6574 17.4223 15.6543C17.6727 14.6857 17.4421 13.7896 16.6711 13.0187C22.0018 10.4028 28.3735 14.04 28.8414 19.8978V19.8978Z" fill="#F0F0F0"/>
<path d="M55.4624 47.7964C51.3507 43.5728 47.2259 39.3689 43.101 35.1584C43.0022 35.0529 42.8902 34.9541 42.732 34.8091C42.0797 35.4812 41.4406 36.1467 40.7882 36.8123C39.5231 35.5537 38.2975 34.2886 37.0258 33.0696C36.6305 32.694 36.6305 32.4436 36.9072 31.9824C45.2491 19.1401 37.0258 2.75934 22.042 0.914368H18.4838C8.96906 1.46786 0.574431 9.98109 0.41629 19.5815C0.422879 19.6342 0.422879 19.687 0.422879 19.7397C0.442647 20.4711 0.376755 21.2025 0.462415 21.9339C0.910479 35.3692 15.5582 44.3635 27.8141 39.0789C29.2703 38.4727 30.6343 37.7018 31.9258 36.8057C32.1235 36.6673 32.2684 36.5289 32.5254 36.7925C33.7642 38.0642 35.0227 39.3227 36.2944 40.5681C36.5316 40.7921 36.4394 40.9107 36.2812 41.0952C35.7936 41.6355 35.339 42.1956 34.8448 42.7228C34.5746 42.9995 34.601 43.1576 34.8646 43.4278C39.0289 47.6251 43.1076 51.8949 47.2786 56.0856C52.8399 61.4954 60.7139 53.4434 55.4624 47.7964V47.7964ZM20.3354 34.8289C12.4284 34.8091 6.22136 28.6021 6.2016 20.6753C6.75509 1.85003 33.9816 1.83026 34.5219 20.6753C34.5087 28.6285 28.2754 34.8421 20.3354 34.8289V34.8289Z" fill="#F0F0F0"/>
<path d="M0.362854 19.5948C0.362854 19.5948 0.422157 19.5816 0.455103 19.5882V21.9406H0.362854V19.5948Z" fill="#F0F0F0"/>
<path d="M22.1467 28.9974C15.0634 30.4405 9.90403 23.2978 12.5463 17.3148C12.6583 17.0183 12.7308 16.9919 12.9944 17.1896C15.7618 19.3047 19.1421 15.4896 16.6711 13.0187C22.0018 10.4028 28.3735 14.04 28.8414 19.8978C29.184 24.2269 26.3704 28.1408 22.1467 28.9974Z" fill="#F0F0F0"/>
<path d="M22.1467 28.9974C15.0634 30.4405 9.90403 23.2978 12.5463 17.3148C12.6583 17.0183 12.7308 16.9919 12.9944 17.1896C15.7618 19.3047 19.1421 15.4896 16.6711 13.0187C22.0018 10.4028 28.3735 14.04 28.8414 19.8978C29.184 24.2269 26.3704 28.1408 22.1467 28.9974Z" fill="#F0F0F0"/>
</svg>
