<svg width="55" height="40" viewBox="0 0 55 40" fill="none" xmlns="http://www.w3.org/2000/svg">
<path d="M16.2826 32.6608H16.2656C16.0777 32.7154 15.8864 32.7666 15.6951 32.8111C16.1084 34.4336 16.4329 36.4627 15.4492 36.8931C14.3629 36.9614 9.32103 36.3978 11.473 38.0647H20.9556C20.4317 35.7852 19.6045 33.5863 18.4961 31.5267C17.8274 32.0267 17.0791 32.4101 16.2826 32.6608Z" fill="#85C226"/>
<path d="M54.7876 37.6753C54.8183 37.5867 54.829 37.4924 54.8191 37.3992C54.8092 37.3059 54.7788 37.216 54.7303 37.1358C54.6817 37.0556 54.616 36.9871 54.538 36.9351C54.4599 36.8831 54.3714 36.8489 54.2787 36.835C51.6997 36.695 49.0865 36.835 46.4972 36.7804C44.8679 36.9034 48.0822 30.2218 48.8884 29.5899C50.1719 27.9359 52.0439 26.8408 54.1147 26.5327C54.2606 26.5267 54.4019 26.48 54.5226 26.3979C54.6434 26.3158 54.7387 26.2016 54.7979 26.0681C54.651 24.4558 51.1224 25.4567 49.7048 25.4772C44.3691 26.1603 40.7517 28.589 38.3981 32.186C39.0813 26.437 43.3614 21.402 50.5656 19.4037C50.9311 19.2739 51.1155 18.9938 51.0062 18.7205C50.1283 17.501 45.4178 19.4037 43.9558 19.7453C39.4536 21.2688 35.6893 23.7009 33.4758 27.1339C34.5757 20.0561 37.8926 13.4293 43.2419 7.62565C43.826 6.60087 45.8687 5.7469 45.6091 4.61965C44.6936 3.407 38.8695 8.55135 35.8669 11.1714C34.8832 15.4071 31.3238 21.5625 25.6192 22.1022C25.1444 22.7854 24.6969 23.4686 24.287 24.1928C24.7038 28.7291 26.1999 33.4874 26.9104 38.0716H54.2753C54.7125 38.1467 54.8833 38.0135 54.7876 37.6753Z" fill="#85C226"/>
<path d="M24.8165 37.7779C24.1561 34.7104 23.5082 31.6361 22.8729 28.5549C22.2683 25.6309 21.9301 22.584 22.3639 19.5814C23.1401 19.9204 23.978 20.0954 24.8251 20.0954C25.6721 20.0954 26.51 19.9204 27.2862 19.5814C30.9583 18.0271 32.9703 14.1535 33.937 10.478C34.6917 7.66773 34.8084 4.72427 34.2786 1.86308C34.2362 1.55678 34.1286 1.26315 33.9629 1.00207C33.7972 0.740996 33.5773 0.518557 33.3182 0.34981C33.0591 0.181064 32.7668 0.0699486 32.461 0.0239845C32.1552 -0.0219797 31.8431 -0.00172004 31.5459 0.0833922C25.9199 1.39852 19.6824 5.89043 18.3332 11.7521C18.1043 12.6505 17.7832 15.7248 19.1291 15.7248C19.3362 15.7181 19.5349 15.6415 19.6931 15.5076C19.8512 15.3736 19.9594 15.1902 20.0001 14.987C21.4177 10.8503 24.2222 7.33536 27.6347 4.64704C27.7806 4.50731 27.9672 4.41759 28.1675 4.39085C28.3422 4.3752 28.5173 4.41575 28.6674 4.50658C28.8174 4.59742 28.9345 4.73379 29.0016 4.89582C29.0687 5.05786 29.0823 5.23709 29.0404 5.40739C28.9985 5.57769 28.9033 5.73017 28.7687 5.84261C21.3938 11.5062 19.2315 19.4003 21.0898 28.3261C20.8063 27.9845 20.5842 27.578 20.2768 27.2603C19.8293 26.7889 19.5936 26.3209 19.9591 25.7027C19.9834 25.6356 19.9984 25.5655 20.0035 25.4943C20.8883 20.9546 16.796 17.4054 12.9463 15.9571C9.46911 14.5432 5.66237 14.1441 1.96756 14.8059C1.59549 14.854 1.2414 14.9945 0.937661 15.2147C0.633923 15.4349 0.39023 15.7277 0.228866 16.0664C0.0922294 16.3465 0.109309 16.6574 0 16.9409C0.126388 17.5489 0.256193 18.1535 0.382581 18.7616C2.0188 24.6062 8.32114 32.3329 15.1325 30.847C16.5617 30.523 17.8222 29.6854 18.6747 28.4935C18.8592 28.268 18.8865 28.3807 19.0847 28.6403C21.1 31.4346 22.2888 34.7343 23.0608 38.0717C23.0608 38.1263 23.0881 38.1844 23.1018 38.239C23.2384 38.8368 23.4433 39.0349 23.9694 39.1169L24.4579 39.0144C24.6046 38.9091 24.7195 38.7654 24.79 38.5991C24.8605 38.4328 24.8839 38.2504 24.8575 38.0717C24.8516 37.9728 24.8379 37.8746 24.8165 37.7779Z" fill="#85C226"/>
</svg>
