<svg width="21" height="21" viewBox="0 0 21 21" fill="none" xmlns="http://www.w3.org/2000/svg">
<path d="M2.82207 20.1429C4.38066 20.1429 5.64414 18.8794 5.64414 17.3208C5.64414 15.7622 4.38066 14.4987 2.82207 14.4987C1.26348 14.4987 0 15.7622 0 17.3208C0 18.8794 1.26348 20.1429 2.82207 20.1429Z" fill="white"/>
<path d="M0 0V3.66351C9.10053 3.66351 16.4793 11.0423 16.4793 20.1429H20.1429C20.1429 9.02286 11.12 0 0 0ZM0 7.32703V10.9905C5.04866 10.9905 9.15231 15.0942 9.15231 20.1429H12.8158C12.8158 13.0618 7.08107 7.32703 0 7.32703Z" fill="white"/>
</svg>
