<svg width="49" height="38" viewBox="0 0 49 38" fill="none" xmlns="http://www.w3.org/2000/svg">
<path d="M31.9269 36.189C32.1224 34.9679 32.4032 33.762 32.7671 32.5801C31.7042 31.432 30.979 30.0126 30.6713 28.4786C30.5813 28.4834 30.491 28.4834 30.4009 28.4786C27.716 28.4786 25.0331 28.4786 22.3525 28.4786C21.7666 28.4786 21.7086 28.5204 21.6281 29.0999C21.1999 32.3579 19.41 35.1556 16.8409 37.1483C16.6284 37.4091 16.9504 37.3576 17.121 37.3673H31.9301C31.8648 36.9913 31.8648 36.6068 31.9301 36.2308L31.9269 36.189Z" fill="#85C226"/>
<path d="M9.12733 15.5979C10.867 15.485 12.61 15.7629 14.2283 16.4113C15.8466 17.0598 17.2992 18.0623 18.4796 19.3453C18.6497 19.5481 18.8642 19.709 19.1065 19.8156C19.3488 19.9223 19.6124 19.9717 19.8768 19.9602C23.3988 19.9376 26.9208 19.9602 30.4428 19.9602C32.3937 19.738 32.4324 22.1075 30.4686 21.8918H21.1034C20.4595 21.8918 20.4016 22.0045 20.6656 22.5646C21.172 23.6712 21.5043 24.8495 21.6507 26.0577C21.6513 26.1218 21.6657 26.185 21.6929 26.243C21.7201 26.3011 21.7595 26.3526 21.8083 26.3941C21.8572 26.4356 21.9144 26.4662 21.976 26.4837C22.0377 26.5012 22.1024 26.5052 22.1658 26.4955C24.9344 26.4955 27.7031 26.4955 30.4718 26.4955H30.607C30.8645 23.3373 33.8907 20.4592 37.2035 19.1586C37.2035 16.0336 37.2035 12.9076 37.2035 9.78052C37.2453 9.25898 36.7528 9.37488 36.4083 9.35878H29.2742C28.2826 9.44892 27.716 8.9306 27.8126 7.9165C27.8126 5.47621 27.8126 3.03593 27.8126 0.595645C27.8493 0.388351 27.8043 0.174904 27.687 6.10352e-05L11.368 6.10352e-05C10.5776 0.13407 9.86304 0.551537 9.35817 1.17433C8.8533 1.79712 8.59269 2.58255 8.6251 3.38362C8.6251 7.20824 8.6251 11.0339 8.6251 14.8607C8.62188 15.2631 8.60579 15.6913 9.12733 15.5979Z" fill="#85C226"/>
<path d="M30.2102 7.29186C32.2127 7.29186 34.2151 7.29186 36.2176 7.29186C36.3013 7.29186 36.4108 7.34659 36.4751 7.24357L29.8786 0.64386C29.8786 2.75899 29.8786 4.84836 29.8786 6.96349C29.8722 7.23392 29.9398 7.29508 30.2102 7.29186Z" fill="#85C226"/>
<path d="M19.6768 27.5063C19.1746 14.4035 0.576268 14.4614 0 27.384C0.441054 40.5383 19.1521 40.5222 19.6768 27.5063ZM14.1652 26.2991C12.4847 27.9796 10.8042 29.6665 9.11726 31.3406C9.01783 31.4568 8.8944 31.5501 8.75546 31.6141C8.61653 31.6781 8.46538 31.7112 8.31242 31.7112C8.15946 31.7112 8.00831 31.6781 7.86938 31.6141C7.73044 31.5501 7.60701 31.4568 7.50758 31.3406C6.79502 30.6409 6.09535 29.9412 5.40855 29.2416C5.29544 29.1442 5.20378 29.0243 5.13937 28.8897C5.07496 28.755 5.0392 28.6085 5.03436 28.4593C5.02952 28.3101 5.0557 28.1615 5.11124 28.023C5.16678 27.8844 5.25048 27.7589 5.35704 27.6544C6.37758 26.6628 7.38524 28.192 8.09672 28.8681C8.26735 29.0516 8.35749 29.0291 8.52168 28.8681C9.86523 27.5138 11.2099 26.1649 12.5556 24.8214C12.7001 24.6525 12.8924 24.5315 13.1072 24.4743C13.322 24.4171 13.5491 24.4265 13.7584 24.5011C13.9678 24.5758 14.1496 24.7122 14.2797 24.8924C14.4098 25.0726 14.4822 25.2881 14.4872 25.5103C14.4759 25.8029 14.3619 26.0821 14.1652 26.2991Z" fill="#85C226"/>
<path d="M48.446 19.9602C44.6553 19.1419 40.7001 19.6086 37.204 21.2865C32.9415 23.2568 30.7234 27.4677 34.2615 31.3439C34.9367 29.7805 35.9402 28.3806 37.204 27.2392C37.8496 26.6494 38.5628 26.1382 39.3287 25.7164C39.4114 25.6697 39.5043 25.6443 39.5992 25.6424C39.7049 25.6444 39.8069 25.6815 39.8892 25.7479C39.9716 25.8143 40.0294 25.9062 40.0538 26.0091C40.0781 26.112 40.0675 26.22 40.0237 26.3163C39.9799 26.4125 39.9053 26.4914 39.8117 26.5406C36.0257 28.6235 34.5254 32.1777 33.8333 36.5013C33.7818 36.8458 33.756 37.1677 34.1327 37.3512H34.4192L34.4482 37.3448C34.8796 37.1484 34.7701 36.5914 34.8699 36.2051C35.0605 34.975 35.3844 33.7692 35.8357 32.6091C35.8744 32.5061 35.9098 32.5125 35.9903 32.5511C39.7086 34.3669 44.6826 32.9471 45.246 28.4239C45.3393 27.7607 45.4101 27.0943 45.4874 26.4279C45.7128 24.1743 47.0971 22.3264 48.681 20.8197C48.7533 20.7597 48.8068 20.6801 48.8351 20.5904C48.8633 20.5008 48.8652 20.4049 48.8404 20.3143C48.8156 20.2236 48.7652 20.142 48.6953 20.0792C48.6253 20.0164 48.5388 19.9751 48.446 19.9602Z" fill="#85C226"/>
</svg>
