<svg width="44" height="44" viewBox="0 0 44 44" fill="none" xmlns="http://www.w3.org/2000/svg">
<path d="M43.9959 22.1579C43.9959 22.1046 43.9959 22.0513 43.9959 22.0021C43.9959 21.9529 43.9959 21.8954 43.9959 21.8462V20.7679H43.9631C43.344 9.61514 34.3808 0.656043 23.228 0.0369024V0H20.7679V0.0369024C9.61923 0.656043 0.656043 9.61513 0.0369024 20.7638H0V21.8421C0 21.8954 0 21.9488 0 21.998C0 22.0472 0 22.1046 0 22.1538V23.2198H0.0369024C0.651943 34.3767 9.61513 43.3399 20.772 43.959V43.9877H21.6699C21.7806 43.9877 21.8913 43.9959 22.0021 43.9959C22.1128 43.9959 22.2235 43.9877 22.3342 43.9877H23.2321V43.959C34.3849 43.3399 43.3481 34.3767 43.9672 23.2198H44V22.1538L43.9959 22.1579ZM41.4947 20.7638H23.228V2.50117C33.0236 3.11211 40.8797 10.9682 41.4947 20.7638ZM20.7679 2.50117V20.7638H2.50116C3.11621 10.9723 10.9764 3.11621 20.7679 2.50117ZM2.50116 23.2239H20.7679V41.4947C10.9723 40.8838 3.11211 33.0195 2.50116 23.2239ZM23.228 41.4947V23.2239H41.4947C40.8838 33.0195 33.0236 40.8838 23.228 41.4947Z" fill="#85C226"/>
<path d="M36.8191 15.2448C35.8433 15.2448 34.8715 15.2448 33.8956 15.2448C33.8177 15.2448 33.7644 15.2283 33.7152 15.1627C33.584 14.9864 33.3995 14.8921 33.174 14.888C32.8747 14.8798 32.5712 14.888 32.2719 14.888C32.2104 14.888 32.1776 14.9208 32.1407 14.9577C31.6856 15.4088 31.1361 15.6343 30.4883 15.6056C29.9307 15.5851 29.4509 15.3719 29.0573 14.9823C28.9835 14.9126 28.9138 14.8839 28.8154 14.8839C28.0978 14.888 27.3762 14.8839 26.6587 14.8839C26.5725 14.8839 26.5356 14.8757 26.5356 14.7732C26.5397 13.8835 26.5397 12.9978 26.5356 12.108C26.5356 12.0137 26.5643 12.0014 26.6505 12.0014C27.3844 12.0014 28.1183 12.0014 28.8564 12.0014C28.9179 12.0014 28.9712 11.9932 29.0204 11.944C29.2295 11.7226 29.4796 11.5545 29.7708 11.4479C29.8405 11.4233 29.8569 11.3823 29.8569 11.3167C29.8569 10.7222 29.8569 10.1235 29.8569 9.52897C29.8569 9.44697 29.8323 9.43057 29.7544 9.43057C29.4878 9.43467 29.2172 9.43057 28.9507 9.43057C28.881 9.43057 28.8318 9.45107 28.7785 9.49617C27.7493 10.39 26.3675 9.10254 27.1671 8.04878C27.5525 7.58134 28.2127 7.48704 28.6719 7.84786C28.9712 8.09798 29.3771 7.95037 29.7298 7.99137C29.7872 7.99137 29.8159 7.97907 29.8323 7.92167C29.8569 7.83966 29.8856 7.75356 29.9266 7.67565C30.2177 7.06471 31.1361 7.17542 31.3002 7.81916C31.3248 7.97087 31.4109 7.99957 31.5544 7.99137C31.7717 7.97907 31.9931 7.98317 32.2104 7.99137C32.2842 7.99137 32.3375 7.97087 32.3949 7.92167C32.8091 7.57314 33.2683 7.52394 33.7152 7.79456C34.4984 8.22509 34.3672 9.45517 33.5143 9.72169C33.1002 9.8734 32.7271 9.78319 32.399 9.50027C32.3416 9.44697 32.2801 9.43057 32.2022 9.43057C31.9398 9.43057 31.6733 9.43057 31.4109 9.43057C31.3453 9.43057 31.3125 9.43467 31.3125 9.51667C31.3166 10.1194 31.3125 10.7263 31.3125 11.329C31.3125 11.3905 31.333 11.4233 31.3904 11.4438C31.6815 11.5545 31.9357 11.7226 32.1489 11.944C32.194 11.9891 32.2391 12.0014 32.3006 12.0014C32.8091 12.0014 33.3175 12.0014 33.8218 12.0014C35.3881 11.9727 36.6141 13.0921 36.8191 14.5969V15.2448Z" fill="#85C226"/>
<path d="M36.8188 16.7824C36.7285 16.9792 36.5768 17.053 36.3554 17.0489C35.6707 17.0407 34.9859 17.0489 34.2971 17.0489C33.7394 17.0612 33.9281 16.4339 33.8912 16.073C33.8871 15.9787 33.9199 15.9664 34.006 15.9664C34.9449 15.9664 35.8798 15.9664 36.8188 15.9664V16.7824Z" fill="#85C226"/>
<path d="M35.2115 19.5665C34.7564 19.4475 34.4612 18.9186 34.7236 18.4963C34.822 18.3282 34.9163 18.156 35.0188 17.9878C35.1951 17.6885 35.5231 17.6926 35.7036 17.9878C35.802 18.1519 35.8881 18.3241 35.9947 18.484C36.2202 18.8202 36.0562 19.3778 35.5928 19.5296C35.5641 19.5378 35.5272 19.5296 35.5067 19.5665H35.2156H35.2115Z" fill="#85C226"/>
<path d="M24.3462 13.4243C24.3462 12.2393 24.3462 11.0543 24.3462 9.86932C24.3462 9.5741 24.5102 9.43059 24.8095 9.45929C25.3795 9.51259 25.8059 9.97182 25.81 10.55C25.81 11.5381 25.81 12.5263 25.81 13.5145C25.81 14.4452 25.81 15.3801 25.81 16.3108C25.81 16.9095 25.3426 17.3851 24.748 17.4015C24.5061 17.4097 24.3503 17.258 24.3503 17.0202C24.3503 15.8188 24.3503 14.6215 24.3503 13.4201L24.3462 13.4243Z" fill="#85C226"/>
<path d="M35.3235 28.9274C33.7162 28.8741 32.0884 28.9274 30.477 28.911C30.3909 28.911 30.3663 28.8946 30.3663 28.8044C30.3663 27.7342 30.3663 26.6681 30.3704 25.598C30.3704 25.4135 30.313 25.2823 30.149 25.2043H26.7622C26.5941 25.2823 26.5326 25.4135 26.5408 25.598C26.549 25.8071 26.5408 26.0203 26.5408 26.2294C26.5408 27.2832 26.5408 28.3411 26.5408 29.3948C26.5408 29.485 26.5613 29.5178 26.6638 29.5178C29.4888 29.5178 32.3139 29.5178 35.1431 29.5178C35.5121 29.5711 35.6844 29.0873 35.3276 28.9315L35.3235 28.9274Z" fill="#85C226"/>
<path d="M34.9838 30.1123C32.7738 30.1123 30.5679 30.1123 28.3578 30.1123C27.8125 30.1123 27.2671 30.1123 26.7218 30.1123C26.6521 30.1123 26.6316 30.1205 26.6521 30.1984C26.9432 31.4285 27.7551 32.4782 28.8785 33.0563C28.9359 33.085 28.9523 33.1178 28.9523 33.1793C28.9523 33.4253 28.9523 33.6754 28.9523 33.9215C28.9523 34.3233 28.9523 34.7251 28.9523 35.1228C28.9523 35.3566 29.0713 35.4714 29.2927 35.4714C30.3423 35.4714 31.392 35.4714 32.4417 35.4714C32.6467 35.4837 32.7861 35.3524 32.782 35.1105C32.782 34.4873 32.782 33.8599 32.782 33.2367C32.782 33.1342 32.8107 33.0809 32.905 33.0317C34.0367 32.4167 34.7583 31.4736 35.0823 30.2271C35.111 30.1164 35.111 30.1164 34.9879 30.1164L34.9838 30.1123Z" fill="#85C226"/>
<path d="M12.3339 8.27851C11.2227 8.27851 10.1116 8.27851 9.00038 8.27851C8.68056 8.27031 8.44685 8.52863 8.35254 8.81565V9.08626C8.38534 9.10676 8.38124 9.14367 8.38944 9.17647C8.48375 9.44709 8.72156 9.6275 8.99628 9.6275C10.1075 9.6275 11.2186 9.6275 12.3298 9.6275C13.1786 9.5947 13.1786 8.31131 12.3298 8.27851H12.3339Z" fill="#85C226"/>
<path d="M19.6158 19.0253C19.5707 18.7055 19.296 18.4513 18.9803 18.4513C17.865 18.4513 16.7498 18.4472 15.6386 18.4513C14.8513 18.4964 14.7734 19.583 15.5279 19.8003H19.091C19.1115 19.7675 19.1484 19.7716 19.1771 19.7593C19.4764 19.6486 19.6568 19.3451 19.6117 19.0253H19.6158Z" fill="#85C226"/>
<path d="M15.3678 15.7123C15.581 15.7697 15.663 15.8804 15.663 16.11C15.663 16.6308 15.663 17.1515 15.663 17.6722C15.663 17.7583 15.6835 17.7747 15.7655 17.7747C16.2821 17.7747 16.7988 17.7747 17.3154 17.7747C17.832 17.7747 18.3569 17.7747 18.8776 17.7747C18.9473 17.7747 18.9678 17.7542 18.9678 17.6845C18.9678 17.1187 18.9678 16.5529 18.9678 15.987C18.976 14.0435 17.2949 12.3501 15.4088 12.3296C15.3555 12.3296 15.3145 12.3214 15.3145 12.4034C15.3145 13.4776 15.3145 14.556 15.3145 15.6303C15.3145 15.6754 15.3227 15.7 15.3719 15.7123H15.3678Z" fill="#85C226"/>
<path d="M12.6092 12.3173C12.396 12.2599 12.314 12.1492 12.314 11.9237C12.314 11.4194 12.314 10.9109 12.314 10.4066C12.314 10.3205 12.2935 10.3041 12.2115 10.3041C11.1782 10.3082 10.1449 10.3041 9.11165 10.3041C9.02965 10.3041 9.00915 10.3205 9.00915 10.4066C9.04605 11.2184 8.92714 12.0508 9.11165 12.8462C9.37407 13.8836 9.96041 14.6709 10.8625 15.2121C11.3873 15.5278 11.9613 15.6877 12.5723 15.7041C12.6256 15.7041 12.6666 15.7123 12.6666 15.6303C12.6666 14.5561 12.6666 13.4777 12.6666 12.4034C12.6666 12.3583 12.6625 12.3337 12.6092 12.3214V12.3173Z" fill="#85C226"/>
<path d="M13.9907 11.653C13.6258 11.653 13.3306 11.9482 13.3306 12.3296C13.3306 13.453 13.3306 14.5806 13.3306 15.7041C13.3675 16.602 14.6181 16.5979 14.6509 15.7041C14.6509 15.1423 14.6509 14.5806 14.6509 14.0189C14.6509 13.4571 14.6509 12.8954 14.6509 12.3337C14.6509 11.9523 14.3597 11.653 13.9948 11.653H13.9907Z" fill="#85C226"/>
<path d="M20.2481 32.8267C19.9488 33.491 19.551 34.106 19.1943 34.7375C19.0467 34.9958 18.8007 35.1229 18.5055 35.127C17.7305 35.1352 16.9597 35.1434 16.1847 35.1475C16.0822 35.1475 16.0658 35.1803 16.0699 35.2705C16.0781 35.4058 16.0699 35.5411 16.074 35.6723C16.074 35.7543 16.0371 35.8158 15.9674 35.8445C15.8895 35.8773 15.8157 35.8569 15.7583 35.7953C15.3401 35.3156 14.9177 34.8441 14.5118 34.3562C14.3027 34.106 14.3027 33.7411 14.5118 33.4869C14.9095 33.0031 15.3237 32.5315 15.7296 32.0518C15.8403 31.9001 16.0699 31.9985 16.0535 32.1789C16.0535 32.3183 16.0576 32.4577 16.0535 32.593C16.0535 32.6627 16.074 32.6832 16.1437 32.6832C16.603 32.6832 17.0622 32.6832 17.5255 32.6832C17.5337 32.6299 17.5009 32.6012 17.4804 32.5684C17.2303 32.142 16.9802 31.7156 16.7301 31.285C16.5702 31.0144 16.6276 30.7971 16.8982 30.6372C17.3287 30.383 17.7592 30.1329 18.1898 29.8787C18.4727 29.7146 18.6941 29.7679 18.8581 30.0468C19.2804 30.7643 19.6987 31.4819 20.1251 32.1994C20.1825 32.2978 20.2112 32.4044 20.2604 32.5069V32.8226L20.2481 32.8267Z" fill="#85C226"/>
<path d="M14.0733 26.9306C13.7945 27.4063 13.5321 27.8655 13.2574 28.337C13.1139 28.583 12.8843 28.6445 12.6341 28.501C12.179 28.2427 11.728 27.9803 11.2728 27.7179C11.0473 27.5867 10.9817 27.3489 11.1129 27.1233C11.5394 26.3771 11.9699 25.6308 12.4045 24.8887C12.5685 24.6099 12.8228 24.4664 13.1508 24.4664C13.7576 24.4664 14.3645 24.4664 14.9713 24.4664C15.3157 24.4664 15.574 24.614 15.7421 24.9092C16.1235 25.5652 16.5048 26.2213 16.8779 26.8814C16.9271 26.9675 16.964 26.9839 17.046 26.9265C17.1526 26.8527 17.2715 26.7953 17.3823 26.7297C17.5299 26.6231 17.7267 26.7871 17.6529 26.9552C17.4479 27.5375 17.2469 28.1279 17.0378 28.7101C16.9066 29.0669 16.5704 29.235 16.1686 29.1571C15.5904 29.0464 15.0123 28.9316 14.4383 28.8209C14.2373 28.7963 14.1922 28.5502 14.3768 28.4682C14.4957 28.4026 14.6146 28.3247 14.7376 28.2632C14.8032 28.2304 14.8032 28.2017 14.7704 28.1443C14.5367 27.7466 14.307 27.3448 14.0692 26.9347L14.0733 26.9306Z" fill="#85C226"/>
<path d="M10.4443 32.6956C11.0635 32.7079 11.6416 32.6669 12.2279 32.712C12.4002 32.7571 12.5232 32.9211 12.5232 33.1015C12.5232 33.6428 12.5232 34.184 12.5232 34.7252C12.5232 34.9794 12.3469 35.1517 12.0885 35.1517C11.2111 35.1517 10.3377 35.1475 9.46027 35.1434C9.17735 35.1229 8.91903 34.9835 8.77962 34.7334C8.4598 34.1881 8.14408 33.6387 7.83656 33.0851C7.68075 32.8063 7.69305 32.5152 7.85706 32.2405C8.23839 31.5844 8.61971 30.9284 9.00514 30.2764C9.06254 30.178 9.04614 30.1411 8.95593 30.096C8.84933 30.0468 8.75502 29.9771 8.64841 29.9197C8.56641 29.8746 8.5049 29.8172 8.52131 29.7188C8.53771 29.6163 8.61151 29.5712 8.70582 29.5548C9.30856 29.4482 9.9113 29.3334 10.514 29.2268C10.8503 29.1694 11.1783 29.3498 11.2972 29.6696C11.5104 30.2559 11.7072 30.8464 11.9081 31.4368C11.9819 31.6131 11.781 31.7689 11.6252 31.6541C11.5022 31.5803 11.3792 31.5106 11.2562 31.4368C11.2234 31.4163 11.1947 31.3917 11.1619 31.4491C10.9282 31.855 10.6944 32.2569 10.4402 32.6915L10.4443 32.6956Z" fill="#85C226"/>
</svg>
